<svg xmlns="http://www.w3.org/2000/svg" xmlns:xlink="http://www.w3.org/1999/xlink" viewBox="0 0 255.01 153.83"><defs><style>.cls-1{fill:url(#New_Gradient_1);}.cls-2{fill-rule:evenodd;}</style><linearGradient id="New_Gradient_1" x1="0.06" y1="85.04" x2="242.78" y2="85.04" gradientUnits="userSpaceOnUse"><stop offset="0" stop-color="#00ad8e"/><stop offset="0.52" stop-color="#009cdc"/><stop offset="1" stop-color="#0061a7"/></linearGradient></defs><g id="Foreground"><path class="cls-1" d="M105.45,131.21c0-.08.06-.14.26,0C105.71,131.28,105.65,131.34,105.45,131.21Zm1.47.47c0-.05,0-.09.17,0S107.05,131.77,106.92,131.68Zm4.69,0s0-.09.18,0S111.75,131.73,111.61,131.64Zm4.64,0c0-.06,0-.11.22,0C116.47,131.67,116.42,131.72,116.25,131.61Zm4.67,0c0-.06,0-.11.23,0C121.15,131.65,121.1,131.7,120.92,131.58Zm4.67,0c0-.07,0-.12.23,0C125.82,131.63,125.77,131.68,125.59,131.57Zm4.66,0c0-.07.05-.12.23,0C130.48,131.59,130.43,131.64,130.25,131.53Zm1-6.8a.69.69,0,1,1,.68-.69A.69.69,0,0,1,131.24,124.73Zm-4.67,0a.68.68,0,0,1-.68-.68.69.69,0,0,1,.68-.69.69.69,0,1,1,0,1.37Zm-4.66,0a.69.69,0,0,1-.69-.68.7.7,0,0,1,.69-.69.69.69,0,0,1,0,1.37Zm20.06.3a.66.66,0,1,1,.65-.65A.64.64,0,0,1,142,125.09Zm-4.67,0a.64.64,0,0,1-.65-.65.63.63,0,0,1,.65-.65.65.65,0,1,1,0,1.3Zm-4.66,0a.65.65,0,1,1,.65-.65A.63.63,0,0,1,132.64,125.15Zm-4.67,0a.66.66,0,0,1,0-1.31.66.66,0,1,1,0,1.31Zm-4.66,0a.66.66,0,0,1,0-1.31.66.66,0,0,1,0,1.31Zm20.06.32a.65.65,0,1,1,.65-.65A.69.69,0,0,1,143.37,125.54Zm-4.66,0a.66.66,0,1,1,.65-.66A.71.71,0,0,1,138.71,125.58Zm-4.67,0a.7.7,0,0,1-.65-.65.69.69,0,0,1,.65-.65.65.65,0,1,1,0,1.3Zm-9.33,0a.58.58,0,0,1-.62-.62.62.62,0,1,1,.62.62Zm4.67,0a.65.65,0,0,1,0-1.3.65.65,0,0,1,0,1.3Zm-9.33,0a.62.62,0,1,1,.62-.62A.59.59,0,0,1,120.05,125.68Zm20.06.32a.64.64,0,0,1-.62-.62.64.64,0,0,1,.62-.62.62.62,0,0,1,0,1.24Zm-4.67,0a.64.64,0,0,1-.62-.62.62.62,0,0,1,1.24,0A.63.63,0,0,1,135.44,126Zm-4.66,0a.64.64,0,0,1-.62-.62.64.64,0,0,1,.62-.62.64.64,0,0,1,.62.62A.65.65,0,0,1,130.78,126.07Zm-4.67,0a.62.62,0,1,1,.62-.62A.63.63,0,0,1,126.11,126.1Zm-4.66,0a.64.64,0,0,1-.62-.62.64.64,0,0,1,.62-.62.66.66,0,0,1,.62.62A.64.64,0,0,1,121.45,126.13Zm20.06.3a.59.59,0,0,1,0-1.18.59.59,0,1,1,0,1.18Zm-4.66,0a.59.59,0,0,1,0-1.18.59.59,0,0,1,.59.59A.6.6,0,0,1,136.85,126.46Zm-4.67,0a.59.59,0,0,1,0-1.17.59.59,0,1,1,0,1.17Zm-4.66,0a.57.57,0,0,1-.59-.58.59.59,0,1,1,.59.58Zm-4.67,0a.59.59,0,1,1,.59-.59A.59.59,0,0,1,122.85,126.56Zm-4.66,0a.59.59,0,0,1,0-1.18.6.6,0,0,1,.58.59A.58.58,0,0,1,118.19,126.59Zm20.06.29a.52.52,0,0,1-.55-.55.56.56,0,1,1,.55.55Zm-4.66,0a.6.6,0,0,1-.59-.55.58.58,0,0,1,.59-.55.55.55,0,0,1,0,1.1Zm-4.67,0a.53.53,0,0,1-.55-.56.52.52,0,0,1,.55-.55.53.53,0,0,1,.56.55A.54.54,0,0,1,128.92,127Zm-4.66,0a.56.56,0,1,1,.55-.55A.53.53,0,0,1,124.26,127Zm-4.67,0a.54.54,0,0,1-.55-.55.55.55,0,0,1,.55-.56.56.56,0,0,1,0,1.11Zm20.06.3a.53.53,0,1,1,.53-.53A.49.49,0,0,1,139.65,127.31Zm-4.66,0a.52.52,0,1,1,.52-.52A.48.48,0,0,1,135,127.34Zm-4.67,0a.52.52,0,1,1,.53-.52A.49.49,0,0,1,130.32,127.37Zm-4.66,0a.52.52,0,0,1,0-1,.52.52,0,0,1,0,1Zm-4.67,0a.53.53,0,1,1,.53-.53A.54.54,0,0,1,121,127.44Zm-4.68,0a.53.53,0,0,1-.5-.52.52.52,0,0,1,.5-.52.53.53,0,0,1,.54.52A.53.53,0,0,1,116.31,127.47Zm20.08.29a.47.47,0,0,1-.49-.49.49.49,0,1,1,.49.49Zm-4.66,0a.49.49,0,1,1,.49-.49A.48.48,0,0,1,131.73,127.8Zm-4.67,0a.47.47,0,0,1-.49-.49.46.46,0,0,1,.49-.49.47.47,0,0,1,.49.49A.48.48,0,0,1,127.06,127.83Zm-4.66,0a.45.45,0,0,1-.49-.49.47.47,0,0,1,.49-.49.49.49,0,0,1,0,1Zm-4.67,0a.47.47,0,0,1-.49-.49.49.49,0,1,1,.49.49Zm15.4.33a.46.46,0,1,1,.46-.46A.43.43,0,0,1,133.13,128.22Zm4.66,0a.54.54,0,0,1-.49-.49.49.49,0,1,1,.49.49Zm-9.33,0a.46.46,0,0,1,0-.91.46.46,0,1,1,0,.91Zm-4.66,0a.42.42,0,0,1-.46-.45.42.42,0,0,1,.46-.46.43.43,0,0,1,.46.46A.42.42,0,0,1,123.8,128.28Zm-4.67,0a.42.42,0,0,1-.45-.46.42.42,0,0,1,.45-.46.46.46,0,1,1,0,.92Zm-4.66,0a.45.45,0,0,1-.46-.46.44.44,0,0,1,.46-.45.43.43,0,0,1,.46.45A.44.44,0,0,1,114.47,128.35Zm20.06.29a.41.41,0,0,1-.42-.42.43.43,0,0,1,.85,0A.42.42,0,0,1,134.53,128.64Zm-4.66,0a.43.43,0,0,1-.43-.43.43.43,0,1,1,.43.43Zm-4.67,0a.42.42,0,0,1-.42-.43.41.41,0,0,1,.42-.42.43.43,0,1,1,0,.85Zm-4.66,0a.43.43,0,1,1,.42-.42A.42.42,0,0,1,120.54,128.74Zm-4.67,0a.41.41,0,0,1-.42-.42.43.43,0,1,1,.42.42Zm20.06.3a.4.4,0,1,1,.4-.39A.37.37,0,0,1,135.93,129.07Zm-4.66,0a.37.37,0,0,1-.39-.39.39.39,0,1,1,.78,0A.36.36,0,0,1,131.27,129.1Zm-4.67,0a.39.39,0,1,1,.4-.39A.37.37,0,0,1,126.6,129.13Zm-4.66,0a.4.4,0,0,1-.39-.4.39.39,0,1,1,.39.4Zm-4.67,0a.42.42,0,0,1-.39-.39.41.41,0,0,1,.39-.39.42.42,0,0,1,.4.39A.43.43,0,0,1,117.27,129.2Zm-4.66,0a.39.39,0,1,1,.39-.39A.42.42,0,0,1,112.61,129.23Zm20.06.29a.38.38,0,0,1-.36-.35.37.37,0,0,1,.36-.36.36.36,0,0,1,0,.71Zm-4.66,0a.36.36,0,1,1,.36-.36A.37.37,0,0,1,128,129.56Zm-4.67,0a.36.36,0,1,1,0-.72.37.37,0,0,1,.36.36A.36.36,0,0,1,123.34,129.59Zm-4.66,0a.36.36,0,0,1,0-.72.37.37,0,0,1,.36.36A.36.36,0,0,1,118.68,129.62Zm-4.67,0a.36.36,0,1,1,0-.71c.19,0,.36.25.36.36S114.12,129.65,114,129.65Zm20.06.3c-.24,0-.32-.26-.32-.33,0-.24.26-.32.32-.32a.33.33,0,1,1,0,.65Zm-4.66,0c-.21,0-.33-.26-.33-.33s.26-.32.33-.32.33.26.33.32A.37.37,0,0,1,129.41,130Zm-9.33,0a.29.29,0,0,1,0-.58.26.26,0,0,1,.29.29C120.37,129.92,120.28,130,120.08,130Zm4.66,0c-.2,0-.32-.26-.32-.32,0-.21.26-.33.32-.33.23,0,.33.26.33.33A.37.37,0,0,1,124.74,130Zm-9.32,0a.27.27,0,0,1-.3-.3.27.27,0,0,1,.3-.29.3.3,0,0,1,0,.59Zm-4.7,0a.3.3,0,1,1,0-.59.3.3,0,0,1,.29.3A.27.27,0,0,1,110.72,130.08Zm24.76.26a.24.24,0,0,1-.26-.26.24.24,0,0,1,.26-.26.24.24,0,0,1,.26.26A.25.25,0,0,1,135.48,130.34Zm-4.67,0a.24.24,0,0,1-.26-.26.26.26,0,0,1,.52,0A.25.25,0,0,1,130.81,130.37Zm-4.66,0a.27.27,0,0,1,0-.53.26.26,0,0,1,.26.26A.25.25,0,0,1,126.15,130.41Zm-4.67,0a.26.26,0,1,1,0-.52.26.26,0,1,1,0,.52Zm-4.66,0a.26.26,0,1,1,.26-.26A.25.25,0,0,1,116.82,130.47Zm-4.67,0c-.17,0-.26-.2-.26-.26a.29.29,0,0,1,.26-.26.27.27,0,0,1,.26.26A.28.28,0,0,1,112.15,130.5Zm-4.69,0a.27.27,0,1,1,0-.53c.18,0,.26.2.26.27A.29.29,0,0,1,107.46,130.54Zm24.76.26c-.17,0-.23-.22-.23-.23,0-.17.2-.23.23-.23s.22.2.22.23A.27.27,0,0,1,132.22,130.8Zm-4.67,0c-.17,0-.23-.2-.23-.23s.21-.23.23-.23c.17,0,.23.21.23.23A.26.26,0,0,1,127.55,130.83Zm-9.33,0a.2.2,0,1,1,0-.39.18.18,0,0,1,.2.2A.18.18,0,0,1,118.22,130.86Zm4.67,0c-.17,0-.23-.21-.23-.23s.2-.22.23-.22.22.2.22.22A.25.25,0,0,1,122.89,130.86Zm-9.33,0a.18.18,0,0,1-.2-.19.19.19,0,0,1,.2-.2.17.17,0,0,1,.19.2A.17.17,0,0,1,113.56,130.89Zm-4.7,0a.19.19,0,0,1-.2-.2.19.19,0,0,1,.2-.19.19.19,0,0,1,.19.19A.2.2,0,0,1,108.86,130.93Zm24.76.26c-.17,0-.17-.14,0-.33C133.79,130.86,133.78,131,133.62,131.19Zm-4.67,0c-.13,0-.16-.14,0-.33C129.1,130.89,129.12,131,129,131.22Zm-4.66,0c-.14,0-.16-.14,0-.32C124.43,130.93,124.45,131.07,124.29,131.25Zm-4.67,0c-.13,0-.16-.15,0-.33C119.76,131,119.79,131.1,119.62,131.29Zm-4.66,0c-.08,0-.16-.08,0-.33C115,131,115.12,131.07,115,131.32Zm-4.7,0c-.08,0-.16-.08,0-.32C110.34,131,110.42,131.11,110.26,131.35Zm5.18,7.74c0-.05,0-.09.18,0S115.58,139.18,115.44,139.09Zm-3.31.5c0-.08.06-.14.26,0C112.39,139.66,112.33,139.72,112.13,139.59Zm-1.36-.46s0-.09.18,0S110.91,139.22,110.77,139.13Zm-3.3.48c0-.07.06-.13.26,0C107.73,139.69,107.68,139.75,107.47,139.61Zm-1.36-.44s0-.09.18,0S106.25,139.26,106.11,139.17Zm-3.31.48c0-.07.06-.13.27,0C103.07,139.73,103,139.79,102.8,139.65Zm-1.35-.46c0-.05,0-.09.18,0S101.59,139.28,101.45,139.19Zm-3.32.48c0-.07.06-.13.26,0C98.39,139.75,98.33,139.81,98.13,139.67Zm-4.66.05c0-.07.06-.13.26,0C93.73,139.79,93.67,139.85,93.47,139.72Zm3.31-.5c0-.05,0-.09.18,0S96.92,139.31,96.78,139.22Zm-8,.54c0-.07.06-.13.26,0C89.08,139.83,89,139.89,88.82,139.76Zm3.28-.5s0-.09.18,0S92.24,139.35,92.1,139.26Zm-4.66,0s0-.09.18,0S87.58,139.38,87.44,139.29ZM68,146.2a.69.69,0,0,1,.68.69.68.68,0,0,1-.68.68.69.69,0,1,1,0-1.37Zm4.66,0a.7.7,0,0,1,.69.69.69.69,0,0,1-1.37,0A.7.7,0,0,1,72.62,146.17Zm4.67,0a.68.68,0,0,1,.68.68.69.69,0,1,1-1.37,0A.7.7,0,0,1,77.29,146.14Zm4.7,0a.69.69,0,1,1-.69.68A.69.69,0,0,1,82,146.11Zm4.66,0a.7.7,0,0,1,.69.69.69.69,0,0,1-1.37,0A.7.7,0,0,1,86.65,146.07Zm4.67,0a.69.69,0,0,1,0,1.37.69.69,0,1,1,0-1.37ZM96,146a.69.69,0,1,1,0,1.37.71.71,0,0,1-.68-.69A.69.69,0,0,1,96,146Zm-29.42-.23a.66.66,0,0,1,0,1.31.66.66,0,1,1,0-1.31Zm4.66,0a.65.65,0,1,1-.65.65A.64.64,0,0,1,71.22,145.75Zm4.67,0a.65.65,0,1,1,0,1.3.65.65,0,1,1,0-1.3Zm4.66,0a.64.64,0,0,1,.65.66.65.65,0,1,1-1.3,0A.64.64,0,0,1,80.55,145.68Zm4.7,0a.64.64,0,0,1,.65.65.65.65,0,1,1-.65-.65Zm4.66,0a.65.65,0,1,1-.65.65A.64.64,0,0,1,89.91,145.62Zm4.67,0a.66.66,0,0,1,0,1.31.66.66,0,0,1,0-1.31Zm-24.76-.26a.62.62,0,1,1-.62.62A.58.58,0,0,1,69.82,145.32Zm4.66,0a.62.62,0,1,1-.62.62A.58.58,0,0,1,74.48,145.29Zm4.67,0a.62.62,0,1,1-.62.62A.59.59,0,0,1,79.15,145.26Zm4.7,0a.62.62,0,1,1-.62.62A.58.58,0,0,1,83.85,145.23Zm4.66,0a.6.6,0,0,1,.62.62.59.59,0,0,1-.62.62.6.6,0,0,1-.62-.62A.59.59,0,0,1,88.51,145.19Zm4.67,0a.61.61,0,0,1,.62.62.6.6,0,0,1-.62.62.62.62,0,0,1,0-1.24Zm4.66,0a.62.62,0,0,1,.62.62.63.63,0,0,1-.62.62.62.62,0,0,1-.62-.62A.61.61,0,0,1,97.84,145.13Zm-29.42-.26a.62.62,0,1,1-.62.62A.64.64,0,0,1,68.42,144.87Zm4.66,0a.64.64,0,0,1,.62.62.64.64,0,0,1-.62.62.65.65,0,0,1-.62-.62A.64.64,0,0,1,73.08,144.83Zm4.67,0a.64.64,0,0,1,.62.62.65.65,0,0,1-.62.62.62.62,0,0,1,0-1.24Zm4.69,0a.64.64,0,0,1,.62.62.64.64,0,0,1-.62.62.62.62,0,0,1,0-1.24Zm9.33,0a.59.59,0,1,1-.58.58A.54.54,0,0,1,91.77,144.74Zm-4.66,0a.64.64,0,0,1,.62.62.62.62,0,0,1-1.24,0A.63.63,0,0,1,87.11,144.74Zm9.33,0a.59.59,0,1,1,0,1.18.59.59,0,1,1,0-1.18Zm4.66,0a.58.58,0,0,1,.59.59.59.59,0,1,1-.59-.59Zm-29.42-.26a.59.59,0,0,1,.59.59.59.59,0,0,1-1.18,0A.6.6,0,0,1,71.68,144.41Zm4.66,0a.59.59,0,1,1,0,1.17.59.59,0,0,1-.58-.59A.58.58,0,0,1,76.34,144.38Zm4.67,0a.59.59,0,1,1-.59.58A.58.58,0,0,1,81,144.35Zm4.7,0a.59.59,0,1,1-.59.59A.62.62,0,0,1,85.71,144.31Zm4.66,0a.59.59,0,1,1-.59.59A.63.63,0,0,1,90.37,144.28Zm4.67,0a.64.64,0,0,1,.58.58.65.65,0,0,1-.58.59c-.36,0-.59-.43-.59-.59A.66.66,0,0,1,95,144.25Zm4.66,0a.64.64,0,0,1,.59.59.63.63,0,0,1-.59.59.64.64,0,0,1-.59-.59A.66.66,0,0,1,99.7,144.21ZM74.94,144a.55.55,0,0,1,.55.56.55.55,0,1,1-1.1,0A.54.54,0,0,1,74.94,144Zm4.66,0a.56.56,0,1,1,0,1.11.56.56,0,0,1,0-1.11Zm4.7,0a.56.56,0,1,1,0,1.11.56.56,0,0,1,0-1.11Zm4.67,0a.57.57,0,0,1,.55.55.56.56,0,0,1-1.11,0A.59.59,0,0,1,89,143.86Zm4.66,0a.59.59,0,0,1,.56.56.58.58,0,0,1-.56.55.59.59,0,0,1-.55-.55A.59.59,0,0,1,93.63,143.82Zm4.67,0a.56.56,0,0,1,0,1.11.59.59,0,0,1-.56-.55A.59.59,0,0,1,98.3,143.79Zm4.66,0a.56.56,0,1,1,0,1.11.56.56,0,0,1,0-1.11Zm-29.42-.23a.53.53,0,0,1,.52.52.52.52,0,0,1-.52.52.52.52,0,1,1,0-1Zm4.68,0a.52.52,0,0,1,.5.52.52.52,0,0,1-.5.52.53.53,0,0,1-.54-.52A.53.53,0,0,1,78.22,143.5Zm4.68,0a.53.53,0,0,1,0,1,.52.52,0,0,1-.52-.52A.53.53,0,0,1,82.9,143.46Zm4.66,0A.53.53,0,1,1,87,144,.54.54,0,0,1,87.56,143.43Zm4.67,0a.52.52,0,0,1,0,1,.52.52,0,1,1,0-1Zm4.66,0a.52.52,0,1,1-.52.52A.52.52,0,0,1,96.89,143.37Zm4.67,0a.53.53,0,0,1,0,1,.52.52,0,0,1-.52-.52A.53.53,0,0,1,101.56,143.33Zm-24.76-.26a.47.47,0,0,1,.49.49.49.49,0,0,1-1,0A.48.48,0,0,1,76.8,143.07Zm4.66,0a.49.49,0,1,1-.48.49A.47.47,0,0,1,81.46,143Zm4.7,0a.48.48,0,0,1,.49.49.49.49,0,0,1-1,0A.48.48,0,0,1,86.16,143Zm4.67,0a.49.49,0,1,1,0,1,.48.48,0,0,1-.49-.49A.47.47,0,0,1,90.83,143Zm4.66,0a.49.49,0,0,1,.49.49.49.49,0,0,1-1,0A.48.48,0,0,1,95.49,142.94Zm4.67,0a.51.51,0,0,1,.49.49.52.52,0,0,1-.49.49.49.49,0,0,1,0-1Zm4.66,0a.49.49,0,0,1,0,1,.49.49,0,1,1,0-1Zm-29.42-.23a.46.46,0,1,1-.46.46A.42.42,0,0,1,75.4,142.65Zm4.66,0a.46.46,0,1,1-.46.45A.43.43,0,0,1,80.06,142.62Zm4.7,0a.46.46,0,1,1-.46.46A.48.48,0,0,1,84.76,142.58Zm4.66,0a.46.46,0,1,1,0,.91A.52.52,0,0,1,89,143,.49.49,0,0,1,89.42,142.55Zm4.67,0a.46.46,0,1,1-.46.46A.48.48,0,0,1,94.09,142.52Zm4.66,0a.46.46,0,1,1-.45.45A.46.46,0,0,1,98.75,142.49Zm4.67,0a.46.46,0,0,1,0,.92.46.46,0,1,1,0-.92Zm-24.76-.26a.43.43,0,1,1-.42.43A.41.41,0,0,1,78.66,142.19Zm4.7,0a.41.41,0,0,1,.42.42.43.43,0,1,1-.85,0A.42.42,0,0,1,83.36,142.16Zm4.66,0a.43.43,0,1,1-.42.42A.42.42,0,0,1,88,142.13Zm4.67,0a.43.43,0,1,1-.43.43A.44.44,0,0,1,92.69,142.09Zm4.66,0a.43.43,0,1,1,0,.85.43.43,0,0,1,0-.85Zm4.67,0c.28,0,.42.32.42.42a.47.47,0,0,1-.42.43c-.28,0-.43-.32-.43-.43A.49.49,0,0,1,102,142Zm4.66,0a.42.42,0,1,1-.42.42A.48.48,0,0,1,106.68,142Zm-24.76-.27a.4.4,0,1,1-.39.4A.43.43,0,0,1,81.92,141.73Zm4.7,0a.42.42,0,0,1,.39.39.43.43,0,0,1-.39.4.4.4,0,0,1,0-.79Zm4.66,0a.43.43,0,0,1,.4.39.4.4,0,0,1-.79,0A.42.42,0,0,1,91.28,141.67Zm4.67,0a.39.39,0,1,1-.39.39A.42.42,0,0,1,96,141.64Zm9.33,0a.34.34,0,0,1,.36.35.36.36,0,1,1-.72,0A.32.32,0,0,1,105.28,141.61Zm-4.67,0a.43.43,0,0,1,.4.39.42.42,0,0,1-.4.39.43.43,0,0,1-.39-.39A.42.42,0,0,1,100.61,141.61Zm9.33,0a.33.33,0,0,1,.36.36.33.33,0,0,1-.36.36.33.33,0,0,1-.36-.36A.33.33,0,0,1,109.94,141.57Zm-29.42-.26a.36.36,0,1,1,0,.72c-.19,0-.36-.25-.36-.36A.43.43,0,0,1,80.52,141.31Zm9.36,0a.31.31,0,0,1,.33.33.33.33,0,0,1-.65,0A.31.31,0,0,1,89.88,141.28Zm-4.66,0a.43.43,0,0,1,.36.36c0,.19-.25.36-.36.36a.36.36,0,1,1,0-.72Zm9.33,0a.3.3,0,0,1,.32.32.33.33,0,1,1-.32-.32Zm4.66,0a.31.31,0,0,1,.33.33.31.31,0,0,1-.33.33.33.33,0,0,1,0-.66Zm4.67,0a.3.3,0,0,1,.32.33.3.3,0,0,1-.32.32.31.31,0,0,1-.33-.32A.31.31,0,0,1,103.88,141.18Zm4.66,0a.33.33,0,0,1,.33.32.33.33,0,0,1-.33.33.32.32,0,0,1-.33-.33A.32.32,0,0,1,108.54,141.15Zm-24.73-.26a.29.29,0,1,1,0,.58.3.3,0,0,1-.29-.29A.27.27,0,0,1,83.81,140.89Zm4.67,0a.3.3,0,0,1,0,.59.3.3,0,0,1-.29-.29A.3.3,0,0,1,88.48,140.85Zm4.66,0a.3.3,0,1,1,0,.59.3.3,0,0,1,0-.59Zm4.67,0a.3.3,0,0,1,.29.29.29.29,0,1,1-.29-.29Zm4.66,0a.29.29,0,1,1-.29.29A.3.3,0,0,1,102.47,140.76Zm4.67,0a.31.31,0,0,1,.29.3.3.3,0,0,1-.59,0A.31.31,0,0,1,107.14,140.72Zm4.66,0a.34.34,0,0,1,.3.29.33.33,0,0,1-.3.3.32.32,0,0,1-.29-.3A.33.33,0,0,1,111.8,140.69Zm-29.42-.23c.17,0,.26.2.26.26a.28.28,0,0,1-.26.26.27.27,0,0,1-.26-.26A.29.29,0,0,1,82.38,140.46Zm4.7,0c.17,0,.26.2.26.26s-.2.26-.26.26a.29.29,0,0,1-.27-.26A.29.29,0,0,1,87.08,140.43Zm9.33,0c.19,0,.22.12.22.23s-.11.22-.22.22-.23-.11-.23-.22S96.3,140.4,96.41,140.4Zm-4.67,0c.16,0,.26.19.26.26s-.19.26-.26.26-.26-.2-.26-.26S91.68,140.4,91.74,140.4Zm9.33,0a.2.2,0,0,1,.23.23c0,.2-.12.23-.23.23s-.23-.12-.23-.23A.2.2,0,0,1,101.07,140.36Zm4.67,0a.23.23,0,0,1,0,.46.21.21,0,0,1-.23-.23A.21.21,0,0,1,105.74,140.33Zm4.66,0a.23.23,0,0,1,0,.46.23.23,0,0,1,0-.46ZM85.67,140a.19.19,0,0,1,.2.19.19.19,0,0,1-.2.2.19.19,0,0,1-.19-.2A.19.19,0,0,1,85.67,140Zm4.67,0a.19.19,0,0,1,.19.19.19.19,0,0,1-.19.2.2.2,0,0,1-.2-.2A.19.19,0,0,1,90.34,140ZM95,140a.2.2,0,1,1,0,.39.2.2,0,0,1-.19-.19A.21.21,0,0,1,95,140Zm4.67,0a.21.21,0,0,1,.19.2.2.2,0,0,1-.19.19.2.2,0,0,1-.2-.17A.19.19,0,0,1,99.67,139.94Zm4.66,0a.22.22,0,0,1,.2.19.21.21,0,0,1-.2.2.2.2,0,0,1-.19-.2A.21.21,0,0,1,104.33,139.91Zm4.67,0a.21.21,0,0,1,.19.19.22.22,0,0,1-.19.2.21.21,0,0,1-.2-.2A.2.2,0,0,1,109,139.88Zm4.66,0a.26.26,0,0,1,.2.2.25.25,0,0,1-.2.19.23.23,0,0,1-.19-.19A.25.25,0,0,1,113.66,139.84Zm-29.39-.23c.08,0,.16.09,0,.33C84.19,139.94,84.11,139.86,84.27,139.61Zm15.46,7-.56.21-.18.07-.83.32-1.22.46a.7.7,0,0,1,.44-1.23c.46,0,.69.31.78.77a.75.75,0,0,1,.63-.35.64.64,0,0,1,.2,0l.18-.07a.67.67,0,0,1-.58-.65.66.66,0,0,1,.65-.65.65.65,0,0,1,.49,1.09Zm-28-2.87,2.22-.71.42-.13a.49.49,0,0,1-.42.13l-1.28.53a.46.46,0,0,1-.48.49A.44.44,0,0,1,71.68,143.77Zm78.58-23.35c.08,0,.18-.1.26-.14a2,2,0,0,0-.15-.18.32.32,0,0,0-.18.14A.71.71,0,0,1,150.26,120.42Zm-4.66,0a1.23,1.23,0,0,0,.25-.14c-.07-.08-.1-.14-.14-.18a.32.32,0,0,0-.19.15A.8.8,0,0,1,145.6,120.45Zm-4.67,0,.26-.14a.79.79,0,0,0-.15-.19.38.38,0,0,0-.18.15A.6.6,0,0,1,140.93,120.49Zm-4.66,0c.08,0,.17-.1.25-.1a.7.7,0,0,0-.14-.23.65.65,0,0,1-.22.08C136.2,120.35,136.23,120.45,136.27,120.52Zm-4.66,0a1,1,0,0,1,.24-.1.64.64,0,0,0-.14-.22.74.74,0,0,1-.21.07A1.12,1.12,0,0,0,131.61,120.55Zm20.06.39a.88.88,0,0,1,.31-.17l-.17-.28c-.11.07-.21.1-.28.14A1.66,1.66,0,0,1,151.67,120.94ZM147,121a3.58,3.58,0,0,1,.32-.18l-.18-.28a2.41,2.41,0,0,1-.28.14A1.73,1.73,0,0,1,147,121Zm-4.66,0a1.94,1.94,0,0,1,.31-.17.94.94,0,0,0-.21-.29,1.58,1.58,0,0,1-.24.15A1.41,1.41,0,0,1,142.34,121Zm-9.25,0a1,1,0,0,1,.23-.14,1,1,0,0,0-.21-.28,1,1,0,0,1-.24.14A.74.74,0,0,0,133.09,121Zm4.58,0a3.37,3.37,0,0,1,.32-.17,1.7,1.7,0,0,0-.21-.28,1,1,0,0,1-.25.14A1.41,1.41,0,0,1,137.67,121Zm-9.32.07a2.48,2.48,0,0,1,.31-.18,1.7,1.7,0,0,0-.21-.28c-.11.07-.21.11-.25.18S128.3,121,128.35,121.11Zm20,.39a3.17,3.17,0,0,1,.38-.21,1.19,1.19,0,0,0-.24-.35,2.2,2.2,0,0,1-.31.15A1.19,1.19,0,0,1,148.37,121.5Zm-4.66,0a1.56,1.56,0,0,1,.38-.2,1.67,1.67,0,0,0-.24-.35,1.66,1.66,0,0,1-.31.14A3.56,3.56,0,0,1,143.71,121.53Zm-4.67,0a2,2,0,0,1,.38-.2,1,1,0,0,0-.24-.35,1.41,1.41,0,0,1-.31.14A2.37,2.37,0,0,1,139,121.56Zm-4.66.07a.77.77,0,0,1,.41-.24,2.55,2.55,0,0,1-.24-.38,2.15,2.15,0,0,1-.34.17C134.27,121.33,134.34,121.49,134.38,121.63Zm-4.66,0a1,1,0,0,1,.41-.24,1.93,1.93,0,0,1-.24-.38,2.91,2.91,0,0,1-.35.18A4.07,4.07,0,0,1,129.72,121.66Zm20,.39a1.06,1.06,0,0,1,.48-.3,1.44,1.44,0,0,1-.24-.38,4.07,4.07,0,0,1-.44.18A.64.64,0,0,1,149.74,122.05Zm-4.66,0a.93.93,0,0,1,.48-.31,1.46,1.46,0,0,1-.24-.41,1.4,1.4,0,0,1-.41.2A1,1,0,0,1,145.08,122.09Zm-4.66,0a1,1,0,0,1,.47-.31,1.75,1.75,0,0,1-.24-.41,1.47,1.47,0,0,1-.44.21A.8.8,0,0,1,140.42,122.12Zm-4.67,0a2.62,2.62,0,0,1,.48-.31,1.42,1.42,0,0,1-.24-.4,3.62,3.62,0,0,1-.45.2A.75.75,0,0,1,135.75,122.15Zm-4.66,0a1.52,1.52,0,0,1,.47-.3,2,2,0,0,1-.24-.41,4.28,4.28,0,0,1-.44.2A1.16,1.16,0,0,1,131.09,122.18Zm-4.67,0a1.13,1.13,0,0,1,.51-.31,1.61,1.61,0,0,1-.27-.41,3.68,3.68,0,0,1-.45.21A.93.93,0,0,1,126.42,122.22Zm20,.42a.8.8,0,0,1,.57-.37c-.09-.2-.26-.35-.26-.47a2.22,2.22,0,0,1-.52.2A.91.91,0,0,1,146.45,122.64Zm-4.67,0a.75.75,0,0,1,.61-.36,1,1,0,0,1-.3-.48,1.92,1.92,0,0,1-.51.2A.92.92,0,0,1,141.78,122.67Zm-4.66,0a.75.75,0,0,1,.61-.37.93.93,0,0,1-.31-.48,2.24,2.24,0,0,1-.54.21A.72.72,0,0,1,137.12,122.71Zm-4.67,0a.79.79,0,0,1,.61-.37,1,1,0,0,1-.3-.51,1,1,0,0,1-.54.24A.75.75,0,0,1,132.45,122.74Zm-4.66,0a.8.8,0,0,1,.61-.37.92.92,0,0,1-.3-.51,2.19,2.19,0,0,1-.55.24A.84.84,0,0,1,127.79,122.77Zm20,.43a.82.82,0,0,1,.7-.47.92.92,0,0,1-.36-.58.82.82,0,0,1-.61.27C147.88,122.69,147.8,123,147.82,123.2Zm-4.67.06a.82.82,0,0,1,.71-.5.89.89,0,0,1-.37-.57.86.86,0,0,1-.61.27.9.9,0,0,1,.27.43ZM235.8,9.82c1.83,3.3,3.35,6.84,5,10.23,3.25,6.67,2.05,13.07-.5,19.73a51.53,51.53,0,0,1-3.1,6.55,5.85,5.85,0,0,0-.32.59v8.37h-5.38c-2.23,3.09-4.62,6.06-7.1,8.95h10V86.09H204.92v9.42h33v21.85H173.07V108c-2.84,1.9-5.69,3.81-8.59,5.62v3.71h-6q-4.41,2.7-8.91,5.29a.77.77,0,0,0-.57.33l-1.21.69a.73.73,0,0,1,0-.44c-.22.47-.44.49-.7.49a.72.72,0,0,1-.74-.82c-.17.4-.64.35-.86.41a.68.68,0,0,1-.26,1.32.68.68,0,0,1-.68-.68.73.73,0,0,1,.84-.71.87.87,0,0,1-.47-.66c-.17.22-.53.26-.7.31a.84.84,0,0,1,.33.6.77.77,0,0,1-.72.72.76.76,0,0,1-.71-.95c-.21.47-.44.49-.69.49a.72.72,0,0,1-.74-.82c-.18.41-.64.35-.86.41a.7.7,0,0,1,.42.64.68.68,0,0,1-.68.68.69.69,0,0,1-.69-.68.74.74,0,0,1,.85-.71.85.85,0,0,1-.48-.69c-.18.29-.5.28-.73.34a.71.71,0,0,1,.36.6.76.76,0,0,1-.72.72.74.74,0,0,1-.71-.72c0-.38.23-.62.75-.73-.17-.09-.3-.46-.38-.57-.14.18-.47.21-.6.28a.59.59,0,0,1,.26.57.69.69,0,0,1-.72.71A.72.72,0,0,1,137,123a.87.87,0,0,1-1,.38.67.67,0,0,1,.53.66.7.7,0,0,1-.69.69.69.69,0,0,1-.68-.69.71.71,0,0,1,.84-.7.83.83,0,0,1-.47-.7,1.13,1.13,0,0,1-.73.34.71.71,0,1,1-1.08.6.79.79,0,0,1,.78-.73c-.21-.08-.33-.45-.4-.57-.15.2-.47.22-.61.28a.6.6,0,0,1,.26.57.69.69,0,0,1-.71.72.72.72,0,0,1-.74-.82.76.76,0,0,1-.67.39c-.38,0-.67-.22-.77-.75a1,1,0,0,1-.73.35.7.7,0,0,1,.36.6.72.72,0,1,1-1.43,0,.84.84,0,0,1,.78-.74c-.21-.08-.31-.45-.41-.57-.14.2-.46.22-.6.28a.59.59,0,0,1,.26.57.7.7,0,0,1-.72.72.72.72,0,0,1-.74-.82c-.25.27-.36.39-.66.39a.78.78,0,0,1-.77-.75,1,1,0,0,1-.73.35.74.74,0,0,1,.36.6.72.72,0,0,1-1.44,0,.84.84,0,0,1,.78-.74c-.21-.08-.31-.45-.4-.56-.15.19-.47.21-.61.28.27.27.26.35.26.56a.69.69,0,0,1-.71.72A.75.75,0,0,1,123,123a.75.75,0,0,1-.67.43.7.7,0,0,1-.55-.27l-.59.46a.75.75,0,0,1-.72.72.7.7,0,0,1-.54-.27l-.66.5a.64.64,0,0,1-.66.65.61.61,0,0,1-.52-.26l1.84-.89,1.85-.91,1.29-.64a.74.74,0,0,1,0,.25c.18-.27.47-.37.48-.5l1.41-.71a.56.56,0,0,0,.4-.21c6.12-3.1,11.82-6.17,17-9.06,29.31-16.54,78.14-50.63,92-81.57C237.29,24.28,239.32,16.47,235.8,9.82ZM44.27,150.55a1.23,1.23,0,0,0-.25.14c.07.08.1.14.14.18a.3.3,0,0,0,.18-.15A1.56,1.56,0,0,1,44.27,150.55Zm4.66,0-.25.14c.07.08.1.15.14.19a.41.41,0,0,0,.19-.15A.67.67,0,0,1,48.93,150.51Zm4.67,0a2,2,0,0,0-.25.14.45.45,0,0,0,.14.18.32.32,0,0,0,.18-.14A1.57,1.57,0,0,1,53.6,150.48Zm4.66,0a1.3,1.3,0,0,1-.25.1.76.76,0,0,0,.14.22.94.94,0,0,1,.22-.07C58.33,150.62,58.3,150.52,58.26,150.45Zm4.66,0a.74.74,0,0,1-.24.11.76.76,0,0,0,.14.22.4.4,0,0,1,.21-.07A1.19,1.19,0,0,0,62.92,150.41Zm4.67-.06a1.28,1.28,0,0,1-.25.14.76.76,0,0,0,.14.22.65.65,0,0,1,.22-.08A.67.67,0,0,1,67.59,150.35Zm4.67,0c-.09.06-.18.09-.25.14a.7.7,0,0,0,.14.21.74.74,0,0,1,.21-.07A.87.87,0,0,1,72.26,150.32Zm4.66,0a1.28,1.28,0,0,1-.25.14.68.68,0,0,0,.11.25,1.54,1.54,0,0,1,.24-.1C77,150.46,76.93,150.36,76.92,150.28Zm4.7,0a.9.9,0,0,1-.28.14,1.3,1.3,0,0,0,.17.25l.21-.11C81.69,150.42,81.63,150.33,81.62,150.25Zm4.66,0a1,1,0,0,1-.28.14,1.25,1.25,0,0,0,.18.25l.21-.11C86.36,150.39,86.29,150.3,86.28,150.22ZM47.53,150a2,2,0,0,1-.32.17l.18.28.28-.14A1.41,1.41,0,0,1,47.53,150Zm4.66,0a2.38,2.38,0,0,1-.31.17,1,1,0,0,0,.21.28,1.23,1.23,0,0,1,.24-.14A2.12,2.12,0,0,1,52.19,150Zm9.25,0c-.07.06-.16.09-.23.14a1,1,0,0,0,.21.28,2.29,2.29,0,0,1,.24-.15A.56.56,0,0,0,61.44,149.93Zm-4.58,0a3.58,3.58,0,0,1-.32.18,1.7,1.7,0,0,0,.21.28,1,1,0,0,1,.25-.14A1.48,1.48,0,0,1,56.86,149.92Zm9.33-.06a2,2,0,0,1-.32.17,2.43,2.43,0,0,0,.21.29c.11-.07.21-.11.25-.19A2.38,2.38,0,0,1,66.19,149.86Zm4.66,0a2.38,2.38,0,0,1-.31.17,1,1,0,0,0,.21.28c.1-.07.21-.1.24-.18S70.89,149.9,70.85,149.83Zm4.7,0a1.13,1.13,0,0,0-.35.17,2.48,2.48,0,0,1,.18.31.65.65,0,0,1,.27-.13A2.68,2.68,0,0,1,75.55,149.8Zm4.7-.07a2.87,2.87,0,0,0-.35.24,1.15,1.15,0,0,1,.17.28,2,2,0,0,1,.32-.17A.92.92,0,0,1,80.25,149.73Zm4.66,0a2.57,2.57,0,0,0-.35.24.86.86,0,0,1,.18.28,2.48,2.48,0,0,1,.31-.18A.82.82,0,0,1,84.91,149.7Zm4.67,0a2.23,2.23,0,0,1-.35.17,3.78,3.78,0,0,0,.17.35,3.37,3.37,0,0,1,.32-.17A.81.81,0,0,1,89.58,149.66Zm-38.76-.22a1.56,1.56,0,0,1-.38.2,1.61,1.61,0,0,0,.25.35,1.35,1.35,0,0,1,.3-.14C50.93,149.7,50.86,149.58,50.82,149.44Zm4.67,0a1.88,1.88,0,0,1-.38.21,1.07,1.07,0,0,0,.24.35,1.41,1.41,0,0,1,.31-.14A2.85,2.85,0,0,1,55.49,149.4Zm4.66-.06a.75.75,0,0,1-.41.23A2.3,2.3,0,0,1,60,150a2.26,2.26,0,0,1,.34-.18A4,4,0,0,1,60.15,149.34Zm4.67,0a.91.91,0,0,1-.42.24,2.27,2.27,0,0,1,.24.38,3.7,3.7,0,0,1,.35-.17A2.45,2.45,0,0,1,64.82,149.3Zm4.66,0a.93.93,0,0,1-.41.24,2.27,2.27,0,0,1,.24.38,2.15,2.15,0,0,1,.34-.17C69.59,149.57,69.52,149.41,69.48,149.27Zm4.67,0a1.13,1.13,0,0,1-.42.24,1.93,1.93,0,0,1,.24.38,2.23,2.23,0,0,1,.35-.17A3.15,3.15,0,0,1,74.15,149.24Zm9.35-.07a.86.86,0,0,1-.4.24c.1.15.16.28.24.38a1.35,1.35,0,0,1,.38-.17A1.05,1.05,0,0,1,83.5,149.17Zm-4.66,0a1,1,0,0,1-.44.28,4.36,4.36,0,0,1,.24.41,1.33,1.33,0,0,1,.41-.21A2.7,2.7,0,0,1,78.84,149.17Zm9.37,0a1.8,1.8,0,0,1-.45.24l.24.38a2.08,2.08,0,0,1,.38-.18A.62.62,0,0,1,88.21,149.14Zm-34.09-.29a1,1,0,0,1-.48.3,2,2,0,0,1,.24.41,1.43,1.43,0,0,1,.44-.2A.76.76,0,0,1,54.12,148.85Zm4.66,0a2.46,2.46,0,0,1-.48.3,1.46,1.46,0,0,1,.24.41c.15-.07.31-.16.45-.21A.73.73,0,0,1,58.78,148.82Zm4.66,0c-.17.2-.38.23-.47.31a1.75,1.75,0,0,1,.24.41,4.39,4.39,0,0,1,.44-.21A1.11,1.11,0,0,1,63.44,148.78Zm4.67,0a1.13,1.13,0,0,1-.51.31,1.38,1.38,0,0,1,.27.41,3.58,3.58,0,0,1,.45-.21A.93.93,0,0,1,68.11,148.75Zm4.66,0c-.17.2-.36.19-.5.31a3.44,3.44,0,0,1,.3.4,1.4,1.4,0,0,1,.41-.2A1.16,1.16,0,0,1,72.77,148.72Zm4.67,0c-.18.21-.37.2-.51.31a.92.92,0,0,1,.27.44,2.2,2.2,0,0,1,.45-.24A.9.9,0,0,1,77.44,148.68Zm4.69-.06c-.08.16-.39.27-.5.34a1.17,1.17,0,0,1,.27.44,2,2,0,0,1,.45-.24C82.19,149,82.18,148.75,82.13,148.62Zm4.67,0c-.08.16-.39.27-.51.34a1.05,1.05,0,0,1,.27.44,1.8,1.8,0,0,1,.45-.24C86.85,149,86.85,148.72,86.8,148.59Zm4.67,0a.69.69,0,0,1-.51.3l.27.49a.75.75,0,0,1,.44-.21A3.34,3.34,0,0,1,91.47,148.55Zm-34.06-.29a.77.77,0,0,1-.61.37.93.93,0,0,1,.31.48,2,2,0,0,1,.54-.21A.77.77,0,0,1,57.41,148.26Zm4.67,0a.82.82,0,0,1-.61.37.93.93,0,0,1,.3.51.93.93,0,0,1,.54-.24A.76.76,0,0,1,62.08,148.23Zm4.66,0a.76.76,0,0,1-.61.36,1,1,0,0,1,.31.51,2.31,2.31,0,0,1,.54-.23A.84.84,0,0,1,66.74,148.2Zm4.67,0a.8.8,0,0,1-.64.37.78.78,0,0,1,.33.51,2.8,2.8,0,0,1,.54-.24A.88.88,0,0,1,71.41,148.16Zm4.66,0a.8.8,0,0,1-.64.37.89.89,0,0,1,.34.51,2,2,0,0,1,.54-.24A.88.88,0,0,1,76.07,148.13Zm9.36-.06a.8.8,0,0,1-.64.36,1,1,0,0,1,.34.55,1,1,0,0,1,.54-.27A.92.92,0,0,1,85.43,148.07Zm4.7-.14a.76.76,0,0,1-.67.47.94.94,0,0,1,.33.54,1.75,1.75,0,0,1,.55-.27,1,1,0,0,1-.23-.54C90.11,148.05,90.14,148,90.13,147.93Zm-9.33,0a.75.75,0,0,1-.67.54.94.94,0,0,1,.33.54,1,1,0,0,1,.55-.27,1.05,1.05,0,0,1-.23-.55A2.11,2.11,0,0,0,80.8,147.93Zm-21.59-.62a.71.71,0,0,1-.74.35.82.82,0,0,1,.47.7,1.19,1.19,0,0,1,.73-.35C59.45,147.92,59.31,147.59,59.21,147.31Zm-1.73.43a1,1,0,0,1,0,.26.85.85,0,0,1,1-.38l-.17-.08Zm35.4,1.47a1.59,1.59,0,0,0-.46.17ZM96.26,148l-1.37.51a.84.84,0,0,1-.12-.37c0-.08,0-.12,0-.2a.75.75,0,0,1-.7.47.8.8,0,0,1,.28.3l-1.49.54-.46.17c-25.49,9.23-59.07,17.84-78.31,8.64a18.18,18.18,0,0,1-7.24-6.28C4.61,148.29,2,144.89.06,141.25c4.9,8,14.22,10,23,10.44,9,.5,18.94-.59,29.3-2.78,0,.09.07.17.09.23.18-.1.34-.16.42-.34.85-.18,1.7-.37,2.54-.57a3.91,3.91,0,0,1,.31.52c.14-.18.47-.22.6-.28a.56.56,0,0,1-.25-.39l1.42-.34.82-.2.91-.23,1.37-.34a.7.7,0,0,1,.17.44.79.79,0,0,1-.78.74c.21.08.33.44.41.57.14-.2.46-.22.6-.28a.6.6,0,0,1-.26-.57.7.7,0,0,1,.72-.72.71.71,0,0,1,.73.82.77.77,0,0,1,.67-.4c.38,0,.67.22.77.76a1,1,0,0,1,.73-.35.7.7,0,0,1-.36-.6.76.76,0,0,1,.72-.72.75.75,0,0,1,.71.72.84.84,0,0,1-.78.74c.22.08.32.45.41.56.14-.19.46-.21.6-.28a.6.6,0,0,1-.26-.56.7.7,0,0,1,.72-.72.71.71,0,0,1,.74.81c.26-.27.36-.39.66-.39a.78.78,0,0,1,.77.75A.92.92,0,0,1,69,148a.74.74,0,0,1-.36-.6.72.72,0,0,1,1.44,0,.83.83,0,0,1-.78.73c.21.08.31.46.4.57.15-.2.47-.22.61-.28-.27-.27-.26-.35-.26-.57a.69.69,0,0,1,.72-.71.74.74,0,0,1,.73.84.74.74,0,0,1,.67-.42c.38,0,.67.28.77.75a.9.9,0,0,1,.73-.34.73.73,0,0,1-.36-.61.72.72,0,0,1,1.43,0,.84.84,0,0,1-.78.74c.22.08.32.46.41.57.14-.18.45-.22.6-.28-.26-.27-.26-.36-.26-.57a.7.7,0,0,1,.72-.72.75.75,0,0,1,.74.85.72.72,0,0,1,.66-.42.8.8,0,0,1,.77.75c.19-.3.49-.28.73-.35-.22-.06-.36-.46-.36-.6a.77.77,0,0,1,.72-.72.75.75,0,0,1,.72.72.77.77,0,0,1-.85.71c.24.06.37.48.47.66.15-.24.48-.26.61-.34-.26-.28-.26-.36-.26-.57a.7.7,0,0,1,.72-.72.76.76,0,0,1,.73.91.74.74,0,0,1,.7-.49.81.81,0,0,1,.77.75c.18-.29.49-.27.73-.34a.71.71,0,0,1-.36-.6.72.72,0,0,1,1.44,0,.75.75,0,0,1-.85.7c.27.1.32.41.47.64.14-.24.46-.25.61-.32a.72.72,0,0,1-.27-.56.69.69,0,0,1,.72-.72.75.75,0,0,1,.74.85.73.73,0,0,1,.66-.43.83.83,0,0,1,.78.78c.18-.31.48-.3.73-.37a.7.7,0,0,1,.35-1.29.65.65,0,0,1,.69.69.69.69,0,0,1-.82.7c.25.05.39.49.48.63.15-.23.43-.22.63-.31a.67.67,0,0,1-.29-.57.71.71,0,0,1,.72-.72.77.77,0,0,1,.73.85c.06-.24.47-.42.67-.42a.81.81,0,0,1,.77.78c.15-.31.54-.34.8-.34a.62.62,0,0,1-.4-.64.65.65,0,0,1,.69-.68.63.63,0,0,1,.68.68.69.69,0,0,1-.81.71c.24.05.45.47.45.63a3.16,3.16,0,0,1,.66-.28c-.14-.23-.3-.37-.3-.6a.72.72,0,0,1,.72-.72.77.77,0,0,1,.74.85c.06-.24.46-.42.66-.42A.78.78,0,0,1,96.26,148ZM122,40.5l15.31,43.73h.23V33.5l-.82.35c-.76.31-1.51.64-2.28,1l-2.29,1c-.77.34-1.54.68-2.31,1l-2.31,1L125.18,39l-2.34,1.1ZM37.76,117.36V100c-4.71,3.62-14.55,12.49-18.53,20-3.45,6.54-4,8.42-4.09,11.73a16.06,16.06,0,0,0,2.51,9.6c-1.84-1.1-4.71-2.42-7.08-5-2.22-2.4-2.6-5-2.9-7.72-.46-4.11,1.28-9.49,3.84-14.27A75.09,75.09,0,0,1,22.26,99.89c5-5.38,11.88-11,15.5-14.65V33.43H71V58.26c2.84-2,5.72-3.86,8.61-5.74V33.43h33.47c.07,0,2.19-1.08,2.4-1.19,5.33-2.62,10.75-5.19,16.25-7.44C145.49,19.15,176.81,8,199.34,8.13c8,0,14.15.83,19.33,3.68,4.45,2.45,6.68,6.1,6.67,8.89a33.52,33.52,0,0,1-.73,7.35c-12-22.77-70.78-1.39-86.93,5.38h26.8V89.67a348.15,348.15,0,0,1-41,24.46L106.82,66.21h-.23v51.15h-27V64.83c-2.9,2-5.76,4-8.61,6v46.49Zm78.51,8.52,1.1-.52a.57.57,0,0,1,0,.18.64.64,0,0,1-.62.62A.62.62,0,0,1,116.27,125.88Zm-1.83.87,1-.47a.52.52,0,0,1,0,.21.54.54,0,0,1-.55.56A.53.53,0,0,1,114.44,126.75Zm-1.83.86.89-.41a.53.53,0,0,1,.06.24.48.48,0,0,1-.49.49A.45.45,0,0,1,112.61,127.61Zm-1.85.86.75-.35a.43.43,0,0,1,.09.26.43.43,0,0,1-.43.43A.41.41,0,0,1,110.76,128.47Zm-1.8.82.54-.24a.45.45,0,0,1,.17.28c0,.19-.25.36-.36.36S109,129.44,109,129.29ZM78.87,141.4l.54-.19a.27.27,0,0,1-.29.3A.27.27,0,0,1,78.87,141.4Zm-2,.68.63-.21a.4.4,0,0,1,.15.29.42.42,0,0,1-.39.39A.43.43,0,0,1,76.87,142.08Zm-7.13,2.29.89-.27a.57.57,0,0,1,.2.44.56.56,0,1,1-1.11,0A.88.88,0,0,1,69.74,144.37Zm-3.23,1,1.15-.34a.67.67,0,0,1-.65.62A.56.56,0,0,1,66.51,145.34Zm-2,.57,1.14-.33a.63.63,0,0,1-.5,1A.69.69,0,0,1,64.51,145.91Zm-1.57.43.37-.1a.69.69,0,0,1,.67.68.69.69,0,1,1-1.37,0A.7.7,0,0,1,62.94,146.34Zm-1.63.43,1.23-.32a.64.64,0,0,1-.65.67A.63.63,0,0,1,61.31,146.77Zm39.74-.65-1.08.42a.71.71,0,0,1,.68-.56A.61.61,0,0,1,101.05,146.12Zm2-.77-1.08.43a.59.59,0,0,1,.59-.68A.57.57,0,0,1,103,145.35Zm1.91-.77-1.06.43a.47.47,0,0,1-.07-.24.58.58,0,0,1,1.13-.19Zm1.84-.76-.89.37a.52.52,0,0,1,.37-.89A.53.53,0,0,1,106.75,143.82Zm1.73-.71-.51.21a.46.46,0,0,1,.11-.9.47.47,0,0,1,.46.46A.44.44,0,0,1,108.48,143.11Zm29.2-13.86-.44.23a.35.35,0,0,1-.26-.35.36.36,0,0,1,.36-.36C137.62,128.77,137.7,129,137.68,129.25Zm1.94-1-.65.35a.43.43,0,0,1-.2-.37.43.43,0,1,1,.85,0Zm1.95-1.06-.86.47a.56.56,0,0,1-.18-.38.54.54,0,0,1,.53-.52A.56.56,0,0,1,141.57,127.15Zm1.87-1-1,.53a.57.57,0,0,1-.12-.35.53.53,0,0,1,.56-.56A.52.52,0,0,1,143.44,126.12Zm1.88-1.05-1.07.6a.63.63,0,0,1-.1-.32.62.62,0,0,1,1.17-.28Zm1.85-1-1.13.64a.6.6,0,0,1-.06-.27.64.64,0,0,1,.65-.65A.63.63,0,0,1,147.17,124Zm25.9-40.56v-50h48.87l-.08.2c-3.93,7.22-11.55,15.42-19.72,24.21A221.53,221.53,0,0,1,173.07,83.47Z" transform="translate(-0.06 -8.13)"/><rect x="29.06" y="117.64" width="3.55" height="16.97"/><path class="cls-2" d="M39.39,142.73v-5.44c0-1.55-.42-2.56-2.1-2.56a2.08,2.08,0,0,0-2.1,1.16h-.06v-1H33.78c0,.55.08,1.09.08,1.64v6.21h1.27v-4.65c0-1.07.2-2.31,1.6-2.31,1.09,0,1.38.68,1.38,1.52v5.44Z" transform="translate(-0.06 -8.13)"/><path class="cls-2" d="M39.51,134.88v1H40.8v5.57c0,.9.54,1.4,1.75,1.4.42,0,.84-.09,1.26-.12v-1c-.28,0-.48.06-.58.06-1.16,0-1.16-.64-1.16-1.13v-4.8h1.71v-1H42.07V132.8l-1.27.58v1.5Z" transform="translate(-0.06 -8.13)"/><path class="cls-2" d="M45.24,138.26c0-2.18.69-2.57,1.49-2.57s1.57.28,1.57,2.57Zm4.41,1v-.67c0-2.59-.55-3.82-2.79-3.82-2.72,0-3,1.89-3,4.19,0,3.47,1.32,4,3,4s2.72-.79,2.73-2.53h-1.4a1.4,1.4,0,0,1-1.36,1.49c-1,0-1.59-.43-1.59-2.62Z" transform="translate(-0.06 -8.13)"/><path class="cls-2" d="M55,138.77c0,1.09,0,2.9-1.49,2.9-1,0-1.53-.59-1.53-3.1,0-1,0-2.78,1.5-2.78S55,137.6,55,138.77Zm0-2.92h0a1.9,1.9,0,0,0-1.84-1.12c-.63,0-2.45.23-2.45,3.84,0,2.33.42,4.16,2.55,4.16a2,2,0,0,0,1.72-1H55v1.63a1.25,1.25,0,0,1-1.37,1.35,1.09,1.09,0,0,1-1.2-1.13H51c-.1,1.44,1.08,2.1,2.38,2.1,1.73,0,2.89-.42,2.89-2.18v-8.64H55Z" transform="translate(-0.06 -8.13)"/><path class="cls-2" d="M58.92,134.88H57.64v7.85h1.28V138.1c0-1.06.36-2.13,1.77-2.13.12,0,.23,0,.34,0l.34.05v-1.32c-1.24,0-1.89.14-2.42,1.34h0Z" transform="translate(-0.06 -8.13)"/><path class="cls-2" d="M65.8,138.83c.13,2.53-.84,3-1.61,3S63,141.16,63,140.4C63,138.74,64.59,138.85,65.8,138.83Zm0,3.9h1.4a12.87,12.87,0,0,1-.16-1.87v-3.77c0-1.32-.52-2.36-2.54-2.36-1.66,0-2.6.6-2.66,2.36h1.38a1.17,1.17,0,0,1,1.23-1.4c1.37,0,1.35,1.14,1.32,2.18-1.78-.05-4.11.06-4.11,2.44,0,1.5.48,2.57,2.14,2.57a1.91,1.91,0,0,0,2-1.29h0Z" transform="translate(-0.06 -8.13)"/><path class="cls-2" d="M74,137.4c.08-1.75-.83-2.67-2.4-2.67-2.72,0-3,1.89-3,4.19,0,3.47,1.32,4,3,4a2.47,2.47,0,0,0,2.47-2.76H72.74c.05,1.41-.84,1.72-1.13,1.72-1.32,0-1.65-.91-1.65-3.46,0-2.14.67-2.61,1.65-2.61.48,0,1.11.34,1.08,1.63Z" transform="translate(-0.06 -8.13)"/><path class="cls-2" d="M76.63,134.88H75.36v7.85h1.27Zm-1.35-2h1.43v-1.37H75.28Z" transform="translate(-0.06 -8.13)"/><path class="cls-2" d="M80.79,131.51l-1.38,2.19h1l2-2.19Zm-.16,10.33c-1.32,0-1.64-.91-1.64-3.46,0-2.14.66-2.61,1.64-2.61s1.65.47,1.65,2.61C82.28,140.93,82,141.84,80.63,141.84Zm0,1c1.67,0,3-.49,3-4,0-2.3-.27-4.19-3-4.19s-3,1.89-3,4.19C77.65,142.39,79,142.88,80.63,142.88Z" transform="translate(-0.06 -8.13)"/><path class="cls-2" d="M90.2,142.73v-5.44c0-1.55-.42-2.56-2.1-2.56a2.08,2.08,0,0,0-2.1,1.16h-.06v-1H84.59c0,.55.08,1.09.08,1.64v6.21h1.27v-4.65c0-1.07.2-2.31,1.6-2.31,1.09,0,1.38.68,1.38,1.52v5.44Z" transform="translate(-0.06 -8.13)"/><polygon class="cls-2" points="97.51 134.6 97.51 122.2 97.56 122.2 102.19 134.6 106.86 134.6 106.86 117.64 103.55 117.64 103.55 129.39 103.5 129.39 98.99 117.64 94.2 117.64 94.2 134.6 97.51 134.6"/><path class="cls-2" d="M109.35,138.26c0-2.18.69-2.57,1.49-2.57s1.57.28,1.57,2.57Zm4.41,1v-.67c0-2.59-.56-3.82-2.79-3.82-2.72,0-3,1.89-3,4.19,0,3.47,1.33,4,3,4s2.72-.79,2.73-2.53h-1.4a1.4,1.4,0,0,1-1.36,1.49c-1,0-1.59-.43-1.59-2.62Z" transform="translate(-0.06 -8.13)"/><path class="cls-2" d="M119.09,138.77c0,1.09,0,2.9-1.49,2.9-.95,0-1.53-.59-1.53-3.1,0-1,.05-2.78,1.49-2.78C119.16,135.79,119.09,137.6,119.09,138.77Zm0-2.92h0a1.88,1.88,0,0,0-1.83-1.12c-.63,0-2.45.23-2.45,3.84,0,2.33.42,4.16,2.54,4.16a2,2,0,0,0,1.73-1h0v1.63a1.26,1.26,0,0,1-1.37,1.35,1.09,1.09,0,0,1-1.2-1.13h-1.43c-.11,1.44,1.08,2.1,2.38,2.1,1.72,0,2.89-.42,2.89-2.18v-8.64h-1.27Z" transform="translate(-0.06 -8.13)"/><path class="cls-2" d="M124.47,141.84c-1.32,0-1.64-.91-1.64-3.46,0-2.14.66-2.61,1.64-2.61s1.65.47,1.65,2.61C126.12,140.93,125.79,141.84,124.47,141.84Zm0,1c1.66,0,3-.49,3-4,0-2.3-.26-4.19-3-4.19s-3,1.89-3,4.19C121.49,142.39,122.81,142.88,124.47,142.88Z" transform="translate(-0.06 -8.13)"/><path class="cls-2" d="M133.93,137.4a2.25,2.25,0,0,0-2.41-2.67c-2.72,0-3,1.89-3,4.19,0,3.47,1.32,4,3,4a2.47,2.47,0,0,0,2.47-2.76h-1.34c0,1.41-.84,1.72-1.13,1.72-1.32,0-1.65-.91-1.65-3.46,0-2.14.67-2.61,1.65-2.61.48,0,1.12.34,1.09,1.63Z" transform="translate(-0.06 -8.13)"/><path class="cls-2" d="M136.55,134.88h-1.28v7.85h1.28Zm-1.35-2h1.43v-1.37H135.2Z" transform="translate(-0.06 -8.13)"/><path class="cls-2" d="M140.55,141.84c-1.32,0-1.65-.91-1.65-3.46,0-2.14.67-2.61,1.65-2.61s1.64.47,1.64,2.61C142.19,140.93,141.87,141.84,140.55,141.84Zm0,1c1.66,0,3-.49,3-4,0-2.3-.26-4.19-3-4.19s-3,1.89-3,4.19C137.56,142.39,138.89,142.88,140.55,142.88Z" transform="translate(-0.06 -8.13)"/><path class="cls-2" d="M149.63,140.49c0-2.39-3.91-2.36-3.91-3.74a1.07,1.07,0,0,1,1.21-1.06,1.1,1.1,0,0,1,1.22,1.26h1.42c.11-1.55-1.09-2.22-2.49-2.22-2.2,0-2.7,1.32-2.7,2.14,0,2.35,3.91,2.38,3.91,3.78,0,.8-.59,1.19-1.35,1.19-1.29,0-1.3-1.05-1.3-1.5h-1.45c0,1.8,1,2.54,2.71,2.54C148.45,142.88,149.63,142.22,149.63,140.49Z" transform="translate(-0.06 -8.13)"/><polygon class="cls-2" points="162.66 134.6 162.66 132 156.76 132 156.76 127.04 162.03 127.04 162.03 124.43 156.76 124.43 156.76 120.25 162.47 120.25 162.47 117.64 153.21 117.64 153.21 134.6 162.66 134.6"/><path class="cls-2" d="M168.35,142.73v-5.28a2.06,2.06,0,0,1,.44-1.38,1.15,1.15,0,0,1,1-.3c1,0,1.25.73,1.25,1.52v5.44h1.27v-6a1.86,1.86,0,0,0-2.14-2,1.89,1.89,0,0,0-1.87,1,2.22,2.22,0,0,0-3.79.12h0v-1h-1.35c0,.55.08,1.09.08,1.64v6.21h1.27v-5.28a2.27,2.27,0,0,1,.3-1.15,1.44,1.44,0,0,1,1.1-.53c1,0,1.24.73,1.24,1.52v5.44Z" transform="translate(-0.06 -8.13)"/><path class="cls-2" d="M176.33,141.84c-1.41,0-1.47-1.66-1.47-2.7,0-1.2-.14-3.37,1.43-3.37s1.6,1.72,1.6,2.9C177.89,140.77,177.7,141.84,176.33,141.84Zm-1.47-7h-1.28V145.7h1.28v-3.76h0a2,2,0,0,0,1.73.94c2.53,0,2.59-2.25,2.59-4.21,0-3.44-1.27-3.94-2.53-3.94a1.94,1.94,0,0,0-1.8,1.09h0Z" transform="translate(-0.06 -8.13)"/><path class="cls-2" d="M181.6,134.88h-1.28v7.85h1.28V138.1c0-1.06.35-2.13,1.77-2.13.12,0,.23,0,.34,0l.34.05v-1.32c-1.24,0-1.9.14-2.42,1.34h0Z" transform="translate(-0.06 -8.13)"/><path class="cls-2" d="M185.71,138.26c0-2.18.69-2.57,1.49-2.57s1.57.28,1.57,2.57Zm4.41,1v-.67c0-2.59-.56-3.82-2.79-3.82-2.72,0-3,1.89-3,4.19,0,3.47,1.32,4,3,4s2.72-.79,2.73-2.53h-1.4a1.4,1.4,0,0,1-1.36,1.49c-1,0-1.59-.43-1.59-2.62Z" transform="translate(-0.06 -8.13)"/><path class="cls-2" d="M196.32,140.49c0-2.39-3.92-2.36-3.92-3.74a1.08,1.08,0,0,1,1.21-1.06,1.1,1.1,0,0,1,1.23,1.26h1.42c.1-1.55-1.09-2.22-2.49-2.22-2.21,0-2.7,1.32-2.7,2.14,0,2.35,3.91,2.38,3.91,3.78,0,.8-.59,1.19-1.35,1.19-1.29,0-1.31-1.05-1.31-1.5h-1.44c0,1.8,1,2.54,2.7,2.54S196.32,142.22,196.32,140.49Z" transform="translate(-0.06 -8.13)"/><path class="cls-2" d="M201.2,138.83c.13,2.53-.84,3-1.61,3s-1.23-.68-1.23-1.44C198.36,138.74,200,138.85,201.2,138.83Zm0,3.9h1.4a12.86,12.86,0,0,1-.15-1.87v-3.77c0-1.32-.53-2.36-2.55-2.36-1.66,0-2.6.6-2.66,2.36h1.38a1.17,1.17,0,0,1,1.23-1.4c1.37,0,1.35,1.14,1.32,2.18-1.79-.05-4.12.06-4.12,2.44,0,1.5.49,2.57,2.15,2.57a1.91,1.91,0,0,0,2-1.29h0Z" transform="translate(-0.06 -8.13)"/><path class="cls-2" d="M205.31,134.88H204v7.85h1.27V138.1c0-1.06.36-2.13,1.77-2.13.13,0,.24,0,.35,0l.34.05v-1.32c-1.25,0-1.9.14-2.43,1.34h0Z" transform="translate(-0.06 -8.13)"/><path class="cls-2" d="M209.43,134.88h-1.27v7.85h1.27Zm-1.35-2h1.43v-1.37h-1.43Z" transform="translate(-0.06 -8.13)"/><path class="cls-2" d="M214.67,138.83c.13,2.53-.84,3-1.61,3s-1.23-.68-1.23-1.44C211.83,138.74,213.46,138.85,214.67,138.83Zm0,3.9h1.4a12.86,12.86,0,0,1-.15-1.87v-3.77c0-1.32-.53-2.36-2.55-2.36-1.66,0-2.6.6-2.66,2.36h1.38a1.17,1.17,0,0,1,1.23-1.4c1.37,0,1.35,1.14,1.32,2.18-1.78-.05-4.11.06-4.11,2.44,0,1.5.48,2.57,2.14,2.57a1.91,1.91,0,0,0,2-1.29h0Z" transform="translate(-0.06 -8.13)"/><rect x="217.38" y="123.39" width="1.27" height="11.22"/><path class="cls-2" d="M221.18,138.26c0-2.18.69-2.57,1.49-2.57s1.57.28,1.57,2.57Zm4.42,1v-.67c0-2.59-.56-3.82-2.8-3.82-2.72,0-3,1.89-3,4.19,0,3.47,1.32,4,3,4s2.72-.79,2.73-2.53h-1.4a1.4,1.4,0,0,1-1.36,1.49c-1,0-1.59-.43-1.59-2.62Z" transform="translate(-0.06 -8.13)"/><path class="cls-2" d="M231.79,140.49c0-2.39-3.92-2.36-3.92-3.74a1.08,1.08,0,0,1,1.22-1.06,1.1,1.1,0,0,1,1.22,1.26h1.42c.1-1.55-1.09-2.22-2.49-2.22-2.21,0-2.7,1.32-2.7,2.14,0,2.35,3.91,2.38,3.91,3.78,0,.8-.59,1.19-1.35,1.19-1.29,0-1.3-1.05-1.3-1.5h-1.45c0,1.8,1,2.54,2.7,2.54S231.79,142.22,231.79,140.49Z" transform="translate(-0.06 -8.13)"/><path class="cls-2" d="M234.89,139.39c0,1.07,0,3.6,3.28,3.57,1.85,0,3.48-.76,3.48-3.12,0-3.56-5-3.2-5-5.67a1.57,1.57,0,0,1,1.72-1.65c1.35,0,1.74.81,1.73,2h1.49c.09-2.28-1.06-3.28-3.11-3.28a3,3,0,0,0-3.29,3.05c0,3.37,5,3.09,5,5.57,0,1.34-.87,1.82-2,1.82a1.77,1.77,0,0,1-1.88-2v-.33Z" transform="translate(-0.06 -8.13)"/><rect x="242.55" y="132.99" width="1.46" height="1.62"/><path class="cls-2" d="M244.32,142.73h1.45l.84-2.67h4.33l.81,2.67h1.6l-3.65-11.22h-1.82Zm6.23-3.92H247l1.75-6h0Z" transform="translate(-0.06 -8.13)"/><rect x="253.55" y="132.99" width="1.46" height="1.62"/></g></svg>