<?xml version="1.0" encoding="utf-8"?>
<!-- Generator: Adobe Illustrator 23.0.1, SVG Export Plug-In . SVG Version: 6.00 Build 0)  -->
<svg version="1.1" id="Capa_1" xmlns="http://www.w3.org/2000/svg" xmlns:xlink="http://www.w3.org/1999/xlink" x="0px" y="0px"
	 viewBox="0 0 255 153.8" style="enable-background:new 0 0 255 153.8;" xml:space="preserve">
<style type="text/css">
	.st0{fill:url(#SVGID_1_);}
	.st1{display:none;}
	.st2{display:none;fill-rule:evenodd;clip-rule:evenodd;}
	.st3{display:none;fill-rule:evenodd;clip-rule:evenodd;fill:#FFFFFF;}
</style>
<g id="Foreground">
	
		<linearGradient id="SVGID_1_" gradientUnits="userSpaceOnUse" x1="6.000000e-02" y1="70.9377" x2="242.7706" y2="70.9377" gradientTransform="matrix(1 0 0 -1 -6.000000e-02 147.87)">
		<stop  offset="0" style="stop-color:#00AD8E"/>
		<stop  offset="0.52" style="stop-color:#009CDC"/>
		<stop  offset="1" style="stop-color:#0061A7"/>
	</linearGradient>
	<path class="st0" d="M105.4,123.1c0-0.1,0.1-0.1,0.3,0C105.7,123.2,105.6,123.2,105.4,123.1z M106.9,123.6c0-0.1,0-0.1,0.2,0
		S107,123.6,106.9,123.6L106.9,123.6z M111.6,123.6c0,0,0-0.1,0.2,0S111.7,123.6,111.6,123.6L111.6,123.6z M116.2,123.6
		c0-0.1,0-0.1,0.2,0C116.4,123.5,116.4,123.6,116.2,123.6L116.2,123.6z M120.9,123.6c0-0.1,0-0.1,0.2,0c0,0-0.1,0-0.2-0.1V123.6z
		 M125.5,123.6c0-0.1,0-0.1,0.2,0c0-0.1-0.1,0-0.2-0.1V123.6z M130.2,123.6c0-0.1,0.1-0.1,0.2,0c0-0.1-0.1,0-0.2-0.2V123.6z
		 M131.2,116.8c-0.4,0-0.7-0.3-0.7-0.7c0-0.4,0.3-0.7,0.7-0.7c0.4,0,0.7,0.3,0.7,0.7c0,0,0,0,0,0c-0.1,0.3-0.4,0.5-0.7,0.5
		L131.2,116.8z M126.5,116.8c-0.4,0-0.7-0.3-0.7-0.7l0,0c0-0.4,0.3-0.7,0.7-0.7c0.4,0,0.7,0.2,0.8,0.6s-0.2,0.7-0.6,0.8
		C126.6,116.8,126.6,116.8,126.5,116.8z M121.9,116.8c-0.4,0-0.7-0.3-0.7-0.7c0-0.4,0.3-0.7,0.7-0.7c0.4,0,0.6,0.4,0.6,0.8
		C122.4,116.5,122.2,116.7,121.9,116.8z M141.9,117.1c-0.4,0-0.7-0.3-0.7-0.6c0-0.4,0.3-0.7,0.6-0.7c0.4,0,0.7,0.3,0.7,0.6
		c0,0,0,0,0,0C142.5,116.7,142.3,117,141.9,117.1L141.9,117.1z M137.3,117.1c-0.4,0-0.6-0.3-0.6-0.6c0,0,0,0,0,0
		c0-0.3,0.3-0.6,0.6-0.7c0,0,0,0,0,0c0.4,0,0.6,0.3,0.6,0.7S137.6,117.1,137.3,117.1z M132.6,117.1c-0.4,0-0.7-0.3-0.7-0.6
		s0.3-0.7,0.6-0.7c0.4,0,0.7,0.3,0.7,0.6c0,0,0,0,0,0C133.2,116.7,132.9,117,132.6,117.1C132.6,117,132.6,117,132.6,117.1
		L132.6,117.1z M127.9,117.1c-0.4,0-0.6-0.4-0.6-0.7c0-0.3,0.3-0.5,0.6-0.6c0.4,0,0.7,0.2,0.7,0.6c0,0.4-0.2,0.7-0.6,0.7
		C128,117.1,128,117.1,127.9,117.1z M123.3,117.1c-0.4,0-0.6-0.4-0.6-0.7c0-0.3,0.3-0.5,0.6-0.6c0.4,0,0.6,0.4,0.6,0.7
		C123.8,116.8,123.6,117,123.3,117.1z M143.3,117.4c-0.4,0-0.7-0.3-0.7-0.6s0.3-0.7,0.6-0.7c0.4,0,0.7,0.3,0.7,0.6c0,0,0,0,0,0
		C144,117.1,143.7,117.4,143.3,117.4L143.3,117.4z M138.7,117.4c-0.4,0-0.7-0.3-0.7-0.6c0-0.4,0.3-0.7,0.6-0.7
		c0.4,0,0.7,0.3,0.7,0.6c0,0,0,0,0,0C139.3,117.1,139,117.4,138.7,117.4L138.7,117.4z M134,117.4c-0.3,0-0.6-0.3-0.6-0.7
		c0-0.4,0.3-0.6,0.6-0.7c0.4,0,0.6,0.3,0.6,0.7S134.3,117.4,134,117.4z M124.7,117.4c-0.3,0-0.6-0.2-0.6-0.5c0,0,0-0.1,0-0.1
		c0-0.3,0.3-0.6,0.6-0.6s0.6,0.3,0.6,0.6C125.3,117.1,125,117.4,124.7,117.4z M129.3,117.4c-0.4,0-0.6-0.3-0.6-0.7s0.3-0.7,0.6-0.7
		s0.6,0.3,0.6,0.7S129.7,117.4,129.3,117.4z M120,117.4c-0.3,0-0.6-0.3-0.6-0.6s0.3-0.6,0.6-0.6c0.3,0,0.6,0.3,0.6,0.6
		c0.1,0.3,0,0.6-0.3,0.8c-0.1,0-0.2,0-0.3,0L120,117.4z M140.1,117.7c-0.3,0-0.6-0.3-0.6-0.6c0-0.3,0.3-0.6,0.6-0.6
		c0.3,0,0.6,0.3,0.6,0.6C140.7,117.4,140.4,117.7,140.1,117.7z M135.4,117.7c-0.3,0-0.6-0.3-0.6-0.6c0-0.3,0.3-0.6,0.6-0.6
		c0.3,0,0.6,0.3,0.6,0.6l0,0c0.1,0.3-0.1,0.7-0.4,0.8c-0.1,0-0.1,0-0.2,0L135.4,117.7z M130.7,117.7c-0.3,0-0.6-0.3-0.6-0.6
		c0-0.3,0.3-0.6,0.6-0.6c0.3,0,0.6,0.3,0.6,0.6c0.1,0.3-0.1,0.7-0.4,0.8c-0.1,0-0.2,0-0.2,0L130.7,117.7z M126.1,117.7
		c-0.3,0-0.6-0.3-0.6-0.6s0.3-0.6,0.6-0.6c0.3,0,0.6,0.3,0.6,0.6c0.2,0.3,0,0.7-0.3,0.8c-0.1,0.1-0.2,0.1-0.3,0.1L126.1,117.7z
		 M121.4,117.7c-0.3,0-0.6-0.3-0.6-0.6c0-0.3,0.3-0.6,0.6-0.6c0.3,0,0.6,0.3,0.6,0.6c0.2,0.3,0,0.7-0.3,0.9
		c-0.1,0.1-0.2,0.1-0.4,0.1L121.4,117.7z M141.5,118c-0.3,0-0.6-0.3-0.6-0.6c0-0.3,0.3-0.6,0.6-0.6s0.6,0.3,0.6,0.6
		C142,117.7,141.8,118,141.5,118z M136.8,118c-0.3,0-0.6-0.3-0.6-0.6c0-0.3,0.3-0.6,0.6-0.6s0.6,0.3,0.6,0.6
		c0.2,0.3,0.1,0.6-0.2,0.8c-0.1,0.1-0.3,0.1-0.4,0.1L136.8,118z M132.1,118c-0.3,0-0.6-0.3-0.5-0.7c0-0.3,0.2-0.5,0.5-0.5
		c0.3,0,0.6,0.2,0.7,0.5c0,0.3-0.2,0.6-0.5,0.7C132.2,118,132.2,118,132.1,118z M127.5,118c-0.3,0-0.6-0.2-0.6-0.5c0,0,0,0,0,0
		c0-0.3,0.3-0.6,0.6-0.6c0.3,0,0.6,0.3,0.6,0.6S127.8,118,127.5,118C127.5,118,127.5,118,127.5,118z M122.8,118
		c-0.3,0-0.6-0.3-0.6-0.6s0.3-0.6,0.6-0.6s0.6,0.3,0.6,0.6v0c0.3,0.2,0.4,0.5,0.2,0.8c-0.2,0.3-0.5,0.4-0.8,0.2l0,0L122.8,118z
		 M118.1,118c-0.3,0-0.6-0.3-0.6-0.6c0-0.3,0.3-0.6,0.6-0.6c0.3,0,0.6,0.3,0.6,0.6c0.3,0.2,0.4,0.5,0.2,0.8
		c-0.2,0.3-0.5,0.4-0.8,0.2l0,0L118.1,118z M138.2,118.3c-0.3,0-0.5-0.2-0.6-0.5c0,0,0,0,0-0.1c0-0.3,0.2-0.6,0.6-0.6
		c0.3,0,0.6,0.2,0.6,0.6C138.8,118,138.5,118.3,138.2,118.3C138.2,118.3,138.2,118.3,138.2,118.3z M133.5,118.3
		c-0.3,0-0.6-0.2-0.6-0.6c0-0.3,0.3-0.6,0.6-0.6c0.3,0,0.5,0.2,0.5,0.6C134.1,118,133.8,118.3,133.5,118.3z M128.9,118.3
		c-0.3,0-0.5-0.2-0.6-0.5c0,0,0,0,0-0.1c0-0.3,0.2-0.5,0.5-0.6c0,0,0,0,0.1,0c0.3,0,0.5,0.2,0.6,0.5c0,0,0,0,0,0.1
		c0.3,0.2,0.4,0.5,0.3,0.9c-0.2,0.3-0.5,0.4-0.9,0.3L128.9,118.3z M124.2,118.3c-0.3,0-0.6-0.2-0.6-0.6c0-0.3,0.2-0.6,0.6-0.6
		c0.3,0,0.6,0.2,0.6,0.6c0,0,0,0,0,0c0.3,0.2,0.4,0.5,0.3,0.8s-0.5,0.4-0.8,0.3l0,0L124.2,118.3z M119.5,118.3
		c-0.3,0-0.5-0.2-0.6-0.5c0,0,0,0,0,0c0-0.3,0.2-0.6,0.5-0.6c0,0,0,0,0,0c0.3,0,0.5,0.3,0.5,0.6C120,118,119.8,118.2,119.5,118.3z
		 M139.6,118.6c-0.3,0-0.5-0.2-0.5-0.5s0.2-0.5,0.5-0.5s0.5,0.2,0.5,0.5l0,0c0.3,0.1,0.4,0.5,0.3,0.8c-0.1,0.3-0.5,0.4-0.8,0.3
		L139.6,118.6z M134.9,118.6c-0.3,0-0.5-0.2-0.5-0.5c0-0.3,0.2-0.5,0.5-0.5c0.3,0,0.5,0.2,0.5,0.5c0.3,0.1,0.5,0.5,0.3,0.8
		c-0.1,0.3-0.5,0.5-0.8,0.3l0,0L134.9,118.6z M130.3,118.6c-0.3,0-0.5-0.2-0.5-0.5c0-0.3,0.2-0.5,0.5-0.5c0.3,0,0.5,0.2,0.5,0.5
		c0.3,0.1,0.5,0.5,0.3,0.9c-0.1,0.3-0.5,0.5-0.9,0.3L130.3,118.6z M125.6,118.6c-0.3-0.1-0.4-0.4-0.4-0.6c0-0.2,0.2-0.3,0.4-0.4
		c0.3,0.1,0.4,0.4,0.4,0.6C125.9,118.4,125.8,118.5,125.6,118.6z M120.9,118.6c-0.3,0-0.5-0.2-0.5-0.5s0.2-0.5,0.5-0.5
		c0.3,0,0.5,0.2,0.5,0.5l0,0c0.3,0.1,0.5,0.5,0.4,0.9c-0.1,0.3-0.5,0.5-0.9,0.4L120.9,118.6z M116.3,118.6c-0.3,0-0.5-0.2-0.5-0.5
		c0-0.3,0.2-0.5,0.5-0.5c0.3,0,0.5,0.2,0.5,0.5c0,0,0,0,0,0c0.4,0.2,0.5,0.6,0.4,0.9s-0.6,0.5-0.9,0.4l0,0L116.3,118.6z
		 M136.3,118.9c-0.3,0-0.5-0.2-0.5-0.4c0,0,0,0,0,0c0-0.3,0.2-0.5,0.5-0.5c0.3,0,0.5,0.2,0.5,0.5
		C136.8,118.7,136.6,118.9,136.3,118.9z M131.7,118.9c-0.3,0-0.5-0.2-0.5-0.5s0.2-0.5,0.5-0.5c0.3,0,0.5,0.2,0.5,0.5
		c0.4,0.1,0.5,0.5,0.4,0.9c-0.1,0.4-0.5,0.5-0.9,0.4l0,0L131.7,118.9z M127,118.9c-0.3,0-0.5-0.2-0.5-0.4c0,0,0,0,0,0
		c0-0.3,0.2-0.5,0.4-0.5c0,0,0,0,0.1,0c0.3,0,0.5,0.2,0.5,0.4c0,0,0,0,0,0c0.4,0.1,0.5,0.5,0.4,0.9s-0.5,0.5-0.9,0.4L127,118.9z
		 M122.3,118.9c-0.2,0-0.5-0.2-0.5-0.4c0,0,0-0.1,0-0.1c0-0.3,0.2-0.5,0.4-0.5c0,0,0,0,0,0c0.3,0,0.5,0.2,0.5,0.5
		S122.6,118.9,122.3,118.9L122.3,118.9z M117.7,118.9c-0.3,0-0.5-0.2-0.5-0.4c0,0,0,0,0,0c0-0.3,0.2-0.5,0.5-0.5
		c0.3,0,0.5,0.2,0.5,0.5C118.2,118.7,118,118.9,117.7,118.9C117.7,118.9,117.7,118.9,117.7,118.9z M133.1,119.2
		c-0.3,0-0.5-0.2-0.5-0.5s0.2-0.5,0.5-0.5c0.3,0,0.5,0.2,0.5,0.5c0.4,0.1,0.6,0.5,0.4,0.9c-0.1,0.4-0.5,0.6-0.9,0.4L133.1,119.2z
		 M137.7,119.2c-0.3,0-0.5-0.2-0.5-0.5c0-0.3,0.2-0.5,0.5-0.5c0.3,0,0.5,0.2,0.5,0.5C138.2,119,138,119.2,137.7,119.2z M128.4,119.2
		c-0.3,0-0.4-0.3-0.4-0.5c0-0.2,0.2-0.4,0.4-0.4c0.3,0,0.5,0.1,0.5,0.4s-0.1,0.5-0.4,0.5C128.5,119.2,128.5,119.2,128.4,119.2z
		 M123.7,119.2c-0.2,0-0.4-0.1-0.5-0.4c0,0,0,0,0-0.1c0-0.2,0.1-0.4,0.4-0.5c0,0,0.1,0,0.1,0c0.2,0,0.4,0.2,0.5,0.4c0,0,0,0,0,0.1
		c0.4,0.1,0.6,0.5,0.5,0.9c-0.1,0.4-0.5,0.6-0.9,0.5L123.7,119.2z M119.1,119.2c-0.2,0-0.4-0.2-0.5-0.4c0,0,0,0,0-0.1
		c0-0.2,0.1-0.4,0.4-0.5c0,0,0,0,0.1,0c0.3,0,0.5,0.2,0.5,0.5C119.5,119,119.3,119.2,119.1,119.2
		C119.1,119.2,119.1,119.2,119.1,119.2z M114.4,119.2c-0.2,0-0.5-0.2-0.5-0.4c0,0,0,0,0,0c0-0.2,0.2-0.4,0.4-0.5c0,0,0,0,0,0
		c0.2,0,0.4,0.2,0.5,0.4c0,0,0,0,0,0.1c0.4,0.1,0.6,0.6,0.5,1s-0.6,0.6-1,0.5L114.4,119.2z M134.5,119.5c-0.2,0-0.4-0.2-0.4-0.4
		c0,0,0,0,0,0c0-0.2,0.3-0.4,0.5-0.4c0.2,0,0.3,0.2,0.4,0.4c0.4,0.1,0.6,0.5,0.5,0.9c-0.1,0.4-0.5,0.6-0.9,0.5L134.5,119.5z
		 M129.8,119.5c-0.2,0-0.4-0.2-0.4-0.4s0.2-0.4,0.4-0.4c0.2,0,0.4,0.2,0.4,0.4S130.1,119.5,129.8,119.5L129.8,119.5z M125.1,119.5
		c-0.2,0-0.4-0.2-0.4-0.4c0,0,0,0,0,0c0-0.2,0.2-0.4,0.4-0.4c0,0,0,0,0,0c0.2,0,0.5,0.1,0.5,0.4c0,0.2-0.1,0.5-0.4,0.5
		C125.2,119.5,125.2,119.5,125.1,119.5z M120.5,119.5c-0.2,0-0.4-0.2-0.4-0.4s0.2-0.4,0.4-0.4s0.4,0.2,0.4,0.4c0,0,0,0,0,0
		c0.4,0.1,0.7,0.6,0.6,1c-0.1,0.4-0.6,0.7-1,0.6l0,0L120.5,119.5z M115.8,119.5c-0.2,0-0.4-0.2-0.4-0.4c0,0,0,0,0,0
		c0-0.2,0.2-0.4,0.4-0.4s0.4,0.2,0.4,0.4S116.1,119.5,115.8,119.5C115.8,119.5,115.8,119.5,115.8,119.5z M135.9,119.8
		c-0.2,0-0.4-0.2-0.4-0.4c0-0.2,0.2-0.4,0.4-0.4c0.2,0,0.4,0.2,0.4,0.4c0,0,0,0,0,0c0.4,0.1,0.7,0.5,0.6,1c-0.1,0.4-0.5,0.7-1,0.6
		L135.9,119.8z M131.2,119.8c-0.2,0-0.4-0.1-0.4-0.3c0,0,0,0,0,0c0-0.2,0.2-0.4,0.4-0.4c0.2,0,0.4,0.2,0.4,0.4c0,0,0,0,0,0
		c0.4,0.1,0.7,0.6,0.6,1c-0.1,0.4-0.6,0.7-1,0.6L131.2,119.8z M126.5,119.8c-0.2,0-0.4-0.2-0.4-0.4c0-0.2,0.2-0.4,0.4-0.4
		c0.2,0,0.4,0.2,0.4,0.4c0.4,0.1,0.7,0.6,0.6,1c-0.1,0.4-0.6,0.7-1,0.6L126.5,119.8z M121.9,119.8c-0.2,0-0.4-0.2-0.4-0.4
		c0-0.2,0.2-0.4,0.4-0.4c0.2,0,0.4,0.2,0.4,0.4C122.3,119.6,122.1,119.8,121.9,119.8z M117.2,119.8c-0.2,0-0.4-0.2-0.4-0.4
		c0-0.2,0.2-0.4,0.4-0.4c0.2,0,0.4,0.2,0.4,0.4c0.5,0.1,0.7,0.6,0.6,1c-0.1,0.5-0.6,0.7-1,0.6L117.2,119.8z M112.6,119.8
		c-0.2,0-0.4-0.2-0.4-0.4s0.2-0.4,0.4-0.4s0.4,0.2,0.4,0.4l0,0c0.5,0.1,0.8,0.6,0.7,1c-0.1,0.5-0.6,0.8-1,0.7l0,0L112.6,119.8z
		 M132.6,120.1c-0.2,0-0.3-0.2-0.4-0.3c0-0.2,0.2-0.4,0.4-0.4c0.2,0,0.3,0.2,0.3,0.4C132.9,119.9,132.8,120.1,132.6,120.1z
		 M128,120.1c-0.2,0-0.4-0.2-0.4-0.4s0.2-0.4,0.4-0.4s0.4,0.2,0.4,0.4c0.5,0.1,0.8,0.6,0.7,1c-0.1,0.5-0.6,0.8-1,0.7L128,120.1z
		 M123.3,120.1c-0.2,0-0.4-0.2-0.4-0.4s0.2-0.4,0.4-0.4l0,0c0.2,0,0.4,0.2,0.4,0.4c0.5,0.1,0.8,0.6,0.7,1.1s-0.6,0.8-1.1,0.7
		L123.3,120.1z M118.6,120.1c-0.2,0-0.4-0.2-0.4-0.4s0.2-0.4,0.4-0.4c0.2,0,0.4,0.2,0.4,0.4c0.5,0.1,0.8,0.6,0.7,1.1
		c-0.1,0.5-0.6,0.8-1.1,0.7L118.6,120.1z M114,120.1c-0.2,0-0.4-0.1-0.4-0.3c0-0.2,0.1-0.4,0.3-0.4c0,0,0.1,0,0.1,0
		c0.2,0,0.4,0.3,0.4,0.4s-0.3,1.8-0.4,1.8L114,120.1z M134,120.4c-0.2,0-0.3-0.3-0.3-0.3c0-0.2,0.3-0.3,0.3-0.3
		c0.2,0,0.4,0.1,0.4,0.3c0,0.2-0.1,0.4-0.3,0.4C134.1,120.4,134.1,120.4,134,120.4z M129.4,120.4c-0.2,0-0.3-0.3-0.3-0.3
		s0.3-0.3,0.3-0.3s0.3,0.3,0.3,0.3c0.5,0.1,0.8,0.6,0.7,1.1s-0.6,0.8-1.1,0.7l0,0L129.4,120.4z M120,120.4c-0.2,0-0.3-0.1-0.3-0.3
		c0-0.2,0.1-0.3,0.3-0.3c0.1,0,0.3,0.1,0.3,0.2c0,0,0,0,0,0.1c0,1.7-0.1,1.8-0.3,1.8L120,120.4z M124.7,120.4
		c-0.2,0-0.3-0.3-0.3-0.3c0-0.2,0.3-0.3,0.3-0.3c0.2,0,0.3,0.3,0.3,0.3c0.5,0.1,0.8,0.6,0.7,1.1c-0.1,0.5-0.6,0.8-1.1,0.7
		L124.7,120.4z M115.4,120.4c-0.1,0-0.3-0.1-0.3-0.2c0,0,0,0,0-0.1c0-0.1,0.1-0.3,0.2-0.3c0,0,0,0,0.1,0c0.2,0,0.3,0.2,0.2,0.3
		C115.6,120.3,115.5,120.4,115.4,120.4z M110.7,120.4c-0.2,0-0.3-0.1-0.3-0.2c0-0.2,0.1-0.3,0.2-0.3c0,0,0.1,0,0.1,0
		c0.2,0,0.3,0.1,0.3,0.3c0.5,0.1,0.9,0.6,0.8,1.1s-0.6,0.9-1.1,0.8L110.7,120.4z M135.4,120.6c-0.1,0-0.2-0.1-0.3-0.2c0,0,0,0,0,0
		c0-0.1,0.1-0.2,0.2-0.3c0,0,0,0,0,0c0.1,0,0.2,0.1,0.3,0.2c0,0,0,0,0,0c0.5,0.1,0.9,0.5,0.8,1s-0.5,0.9-1,0.8L135.4,120.6z
		 M130.8,120.6c-0.1,0-0.2-0.1-0.3-0.2c0,0,0,0,0,0c0-0.1,0.1-0.3,0.3-0.3c0.1,0,0.3,0.1,0.3,0.3c0.5,0.1,0.9,0.6,0.8,1.1
		c-0.1,0.5-0.6,0.9-1.1,0.8L130.8,120.6z M126.1,120.6c-0.1,0-0.2-0.2-0.2-0.3c0-0.1,0.1-0.2,0.2-0.2c0.1,0,0.3,0.1,0.3,0.3
		c0.5,0.1,0.9,0.6,0.8,1.1s-0.6,0.9-1.1,0.8L126.1,120.6z M121.4,120.6c-0.1,0-0.3-0.1-0.3-0.3c0-0.1,0.1-0.3,0.3-0.3
		s0.3,0.1,0.3,0.3C121.7,120.5,121.6,120.6,121.4,120.6L121.4,120.6z M116.8,120.6c-0.1,0-0.3-0.1-0.3-0.3c0-0.1,0.1-0.3,0.3-0.3
		c0.1,0,0.3,0.1,0.3,0.3l0,0c0.5,0.1,0.9,0.6,0.8,1.1s-0.6,0.9-1.1,0.8L116.8,120.6z M112.1,120.6c-0.2,0-0.3-0.2-0.3-0.3
		c0-0.1,0.1-0.2,0.3-0.3c0.1,0,0.3,0.1,0.3,0.3c0.5,0.1,0.9,0.6,0.9,1.1s-0.6,0.9-1.1,0.9L112.1,120.6z M107.4,120.6
		c-0.1,0-0.3-0.1-0.3-0.2c0-0.1,0.1-0.3,0.2-0.3c0,0,0.1,0,0.1,0c0.2,0,0.3,0.2,0.3,0.3c0.6,0.1,1,0.6,0.9,1.1
		c-0.1,0.6-0.6,1-1.1,0.9L107.4,120.6z M132.2,120.9c-0.2,0-0.2-0.2-0.2-0.2c0-0.2,0.2-0.2,0.2-0.2s0.2,0.2,0.2,0.2
		c0.6,0.1,0.9,0.6,0.9,1.1s-0.6,0.9-1.1,0.9l0,0L132.2,120.9z M127.5,120.9c-0.2,0-0.2-0.2-0.2-0.2s0.2-0.2,0.2-0.2
		c0.2,0,0.2,0.2,0.2,0.2c0.6,0.1,1,0.6,0.9,1.1c-0.1,0.6-0.6,1-1.1,0.9L127.5,120.9z M118.2,120.9c-0.1,0-0.2,0-0.2-0.2
		s0-0.2,0.2-0.2c0,0,0.1,0,0.1,0c0.1,0,0.2,0.1,0.2,0.2c0,0,0,0,0,0c0.6,0.1,1,0.6,0.9,1.1s-0.6,1-1.1,0.9L118.2,120.9z
		 M122.8,120.9c-0.2,0-0.2-0.2-0.2-0.2s0.2-0.2,0.2-0.2s0.2,0.2,0.2,0.2c0.6,0.1,1,0.6,0.9,1.1s-0.6,1-1.1,0.9L122.8,120.9z
		 M113.5,120.9c-0.1,0-0.2-0.1-0.2-0.2c0,0,0,0,0,0c0-0.1,0.1-0.2,0.2-0.2c0,0,0,0,0,0c0.1,0,0.2,0.1,0.2,0.1c0,0,0,0,0,0.1
		c0.6,0.1,1,0.6,0.9,1.1c-0.1,0.6-0.6,1-1.1,0.9l0,0L113.5,120.9z M108.8,120.9c-0.1,0-0.2-0.1-0.2-0.2c0,0,0,0,0,0
		c0-0.1,0.1-0.2,0.2-0.2c0,0,0,0,0,0c0.1,0,0.2,0.1,0.2,0.2l0,0c0.6,0.1,1,0.6,1,1.1c-0.1,0.6-0.6,1-1.1,1L108.8,120.9z
		 M133.6,121.2c-0.2,0-0.2-0.1,0-0.3c0.2,1.9,0.2,2,0,2.2L133.6,121.2z M128.9,121.2c-0.1,0-0.2-0.1,0-0.3c0.1,1.9,0.2,2,0,2.3
		L128.9,121.2z M124.2,121.2c-0.1,0-0.2-0.1,0-0.3c0.1,2,0.2,2.1,0,2.3L124.2,121.2z M119.6,121.2c-0.1,0-0.2-0.1,0-0.3
		c0.1,2,0.2,2.1,0,2.3L119.6,121.2z M114.9,121.2c-0.1,0-0.2-0.1,0-0.3c0,2,0.2,2.1,0,2.4L114.9,121.2z M110.2,121.2
		c-0.1,0-0.2-0.1,0-0.3c0.1,2,0.2,2.1,0,2.4L110.2,121.2z M115.4,128.9c0-0.1,0-0.1,0.2,0s0,2.1-0.2,2.1L115.4,128.9z M112.1,129.4
		c0-0.1,0.1-0.1,0.3,0c0,2.1-0.1,2.2-0.3,2.1L112.1,129.4z M110.7,128.9c0,0,0-0.1,0.2,0s0,2.1-0.2,2.1L110.7,128.9z M107.4,129.4
		c0-0.1,0.1-0.1,0.3,0c0,2.1-0.1,2.2-0.3,2.1L107.4,129.4z M106.1,129c0,0,0-0.1,0.2,0s0,2.1-0.2,2.1L106.1,129z M102.7,129.5
		c0-0.1,0.1-0.1,0.3,0c0,2.1-0.1,2.2-0.3,2.1L102.7,129.5z M101.4,129c0-0.1,0-0.1,0.2,0s0,2.2-0.2,2.1L101.4,129z M98.1,129.5
		c0-0.1,0.1-0.1,0.3,0c0,2.1-0.1,2.2-0.3,2.1L98.1,129.5z M93.4,129.5c0-0.1,0.1-0.1,0.3,0c0,2.1-0.1,2.2-0.3,2.1L93.4,129.5z
		 M96.7,129c0-0.1,0-0.1,0.2,0s0,2.2-0.2,2.1L96.7,129z M88.7,129.6c0-0.1,0.1-0.1,0.3,0c0,2.1,0,2.2-0.2,2.1L88.7,129.6z M92,129.1
		c0,0,0-0.1,0.2,0s0,2.2-0.1,2.1L92,129.1z M87.3,129.1c0,0,0-0.1,0.2,0s0,2.2-0.1,2.1L87.3,129.1z M67.9,138.1
		c0.4,0,0.7,0.3,0.7,0.7c0,0.4-0.3,0.7-0.7,0.7c-0.4,0-0.7-0.2-0.8-0.6c0-0.4,0.2-0.7,0.6-0.8C67.8,138.1,67.9,138.1,67.9,138.1z
		 M72.6,138.1c0.4,0,0.7,0.3,0.7,0.7c0,0.4-0.4,0.6-0.8,0.6c-0.3,0-0.6-0.3-0.6-0.6C71.9,138.4,72.2,138.1,72.6,138.1L72.6,138.1z
		 M77.3,138.1c0.4,0,0.7,0.3,0.7,0.7c0,0.4-0.2,0.7-0.6,0.8c-0.4,0-0.7-0.2-0.8-0.6c0-0.1,0-0.1,0-0.2
		C76.6,138.4,76.8,138,77.3,138.1L77.3,138.1z M82,138.1c0.4,0,0.7,0.3,0.7,0.7c0,0.4-0.3,0.7-0.7,0.7c-0.4,0-0.7-0.3-0.7-0.7
		c0,0,0,0,0,0C81.2,138.4,81.5,138,82,138.1C81.9,138,81.9,138,82,138.1L82,138.1z M86.6,138.1c0.4,0,0.7,0.3,0.7,0.7
		c0,0.4-0.4,0.6-0.8,0.6c-0.3,0-0.6-0.3-0.6-0.6c-0.1-0.4,0.2-0.7,0.6-0.8c0,0,0,0,0.1,0L86.6,138.1z M91.3,138.1
		c0.4,0,0.6,0.4,0.6,0.8c0,0.3-0.3,0.6-0.6,0.6c-0.4,0-0.7-0.2-0.8-0.6c0-0.4,0.2-0.7,0.6-0.8C91.2,138.1,91.2,138.1,91.3,138.1z
		 M95.9,137.9c0.4,0,0.7,0.2,0.8,0.6c0,0.4-0.2,0.7-0.6,0.8c-0.1,0-0.1,0-0.2,0c-0.4,0-0.7-0.3-0.7-0.7
		C95.3,138.2,95.6,137.9,95.9,137.9z M66.5,137.6c0.4,0,0.6,0.4,0.6,0.7c0,0.3-0.3,0.5-0.6,0.6c-0.4,0-0.7-0.2-0.7-0.6
		c0-0.4,0.2-0.7,0.6-0.7C66.4,137.6,66.5,137.6,66.5,137.6z M71.2,137.6c0.4,0,0.7,0.3,0.7,0.7c0,0.4-0.3,0.6-0.7,0.6
		c-0.4,0-0.7-0.3-0.7-0.7l0,0C70.5,137.9,70.8,137.6,71.2,137.6C71.1,137.6,71.2,137.6,71.2,137.6L71.2,137.6z M75.9,137.6
		c0.4,0,0.7,0.3,0.7,0.7c0,0.4-0.3,0.6-0.7,0.6s-0.7-0.3-0.7-0.6C75.2,137.9,75.5,137.6,75.9,137.6z M80.5,137.6
		c0.4,0,0.6,0.3,0.7,0.6c0,0,0,0,0,0c0,0.4-0.3,0.7-0.7,0.6c-0.4,0-0.7-0.3-0.7-0.6c-0.1-0.3,0.2-0.7,0.5-0.7
		C80.4,137.6,80.5,137.6,80.5,137.6L80.5,137.6z M85.2,137.6c0.4,0,0.6,0.3,0.7,0.6c0,0,0,0,0,0c0,0.4-0.3,0.7-0.6,0.7
		s-0.7-0.3-0.7-0.6C84.6,137.9,84.9,137.6,85.2,137.6C85.2,137.6,85.2,137.6,85.2,137.6z M89.9,137.6c0.4,0,0.7,0.3,0.7,0.7
		c0,0.4-0.3,0.6-0.7,0.6c-0.4,0-0.7-0.3-0.7-0.7l0,0c-0.1-0.3,0.1-0.7,0.5-0.8c0.1,0,0.1,0,0.2,0L89.9,137.6z M94.5,137.6
		c0.4,0,0.6,0.4,0.6,0.7c0,0.3-0.3,0.5-0.6,0.6c-0.4,0-0.6-0.4-0.6-0.7C94,137.9,94.2,137.7,94.5,137.6z M69.8,137.4
		c0.3,0,0.6,0.3,0.6,0.6c0,0.3-0.3,0.6-0.6,0.6c-0.3,0-0.6-0.3-0.6-0.6l0,0c-0.1-0.3,0-0.6,0.3-0.8c0.1,0,0.2-0.1,0.3,0L69.8,137.4z
		 M74.4,137.4c0.3,0,0.6,0.3,0.6,0.6c0,0.3-0.3,0.6-0.6,0.6c-0.3,0-0.6-0.3-0.6-0.6l0,0c-0.1-0.3,0-0.6,0.2-0.8
		c0.1-0.1,0.2-0.1,0.4-0.1L74.4,137.4z M79.1,137.4c0.3,0,0.6,0.3,0.6,0.6c0,0.3-0.3,0.6-0.6,0.6c-0.3,0-0.6-0.3-0.6-0.6l0,0
		c-0.2-0.3-0.1-0.6,0.2-0.8c0.1-0.1,0.2-0.1,0.4-0.1L79.1,137.4z M83.8,137.4c0.3,0,0.6,0.3,0.6,0.6c0,0.3-0.3,0.6-0.6,0.6
		c-0.3,0-0.6-0.3-0.6-0.6l0,0c-0.2-0.3-0.1-0.6,0.1-0.8c0.1-0.1,0.3-0.1,0.5-0.1L83.8,137.4z M88.5,137.4c0.3,0,0.6,0.2,0.6,0.6
		c0,0,0,0,0,0c0,0.3-0.2,0.6-0.6,0.6c0,0,0,0-0.1,0c-0.3,0-0.6-0.2-0.6-0.6c0,0,0,0,0,0c-0.2-0.3-0.2-0.6,0.1-0.8
		c0.1-0.1,0.3-0.2,0.5-0.1L88.5,137.4z M93.1,137.4c0.3,0,0.6,0.3,0.6,0.6c0,0,0,0,0,0c0,0.3-0.2,0.6-0.6,0.6c0,0,0,0,0,0
		c-0.3,0-0.6-0.3-0.6-0.6C92.5,137.7,92.8,137.4,93.1,137.4L93.1,137.4L93.1,137.4z M97.8,137.4c0.3,0,0.6,0.3,0.6,0.6
		c0,0.3-0.3,0.6-0.6,0.6c-0.3,0-0.6-0.3-0.6-0.6c-0.2-0.3-0.2-0.6,0-0.9c0.2-0.1,0.4-0.2,0.6-0.1L97.8,137.4z M68.4,137.1
		c0.3,0,0.6,0.3,0.6,0.6c0,0.3-0.3,0.6-0.6,0.6c-0.3,0-0.6-0.3-0.6-0.6l0,0c-0.2-0.3-0.1-0.7,0.2-0.9c0.1-0.1,0.3-0.1,0.4-0.1
		L68.4,137.1z M73,137.1c0.3,0,0.6,0.3,0.6,0.6c0,0.3-0.3,0.6-0.6,0.6c-0.3,0-0.6-0.3-0.6-0.6c-0.2-0.3-0.2-0.7,0.1-0.9
		c0.1-0.1,0.3-0.2,0.5-0.1L73,137.1z M77.7,137.1c0.3,0,0.6,0.3,0.6,0.6c0,0.3-0.3,0.6-0.6,0.6c-0.3,0-0.6-0.3-0.6-0.6
		C77.1,137.4,77.4,137.1,77.7,137.1L77.7,137.1L77.7,137.1z M82.4,137.1c0.3,0,0.6,0.3,0.6,0.6c0,0.3-0.3,0.6-0.6,0.6
		c-0.3,0-0.6-0.3-0.6-0.6C81.8,137.4,82.1,137.1,82.4,137.1L82.4,137.1z M91.7,137.1c0.3,0,0.6,0.3,0.6,0.6s-0.3,0.6-0.6,0.6
		c-0.3,0-0.6-0.3-0.6-0.6c0,0,0,0,0,0c-0.3-0.2-0.4-0.5-0.3-0.8c0.2-0.3,0.5-0.4,0.8-0.3l0,0L91.7,137.1z M87.1,137.1
		c0.3,0,0.6,0.3,0.6,0.6c0,0.3-0.3,0.6-0.6,0.6c-0.3,0-0.6-0.3-0.6-0.6c-0.3-0.2-0.4-0.6-0.3-0.9c0.2-0.3,0.6-0.4,0.9-0.3l0,0
		L87.1,137.1z M96.4,137.1c0.3,0,0.6,0.3,0.6,0.6s-0.3,0.6-0.6,0.6c0,0,0,0,0,0c-0.3,0-0.6-0.3-0.6-0.6S96.1,137.1,96.4,137.1
		C96.4,137.1,96.4,137.1,96.4,137.1z M101.1,137.1c0.3,0,0.6,0.2,0.6,0.6c0,0,0,0,0,0c0,0.3-0.3,0.6-0.6,0.6c-0.3,0-0.6-0.3-0.6-0.6
		C100.5,137.4,100.7,137.1,101.1,137.1L101.1,137.1z M71.6,136.9c0.3,0,0.6,0.3,0.6,0.6S72,138,71.6,138c-0.3,0-0.6-0.3-0.6-0.6l0,0
		c-0.3-0.2-0.5-0.5-0.3-0.9c0.2-0.3,0.5-0.5,0.9-0.3L71.6,136.9z M76.3,136.9c0.3,0,0.6,0.2,0.7,0.5s-0.2,0.6-0.5,0.7
		c-0.1,0-0.1,0-0.2,0c-0.3,0-0.6-0.3-0.6-0.6c-0.3-0.2-0.5-0.5-0.3-0.9s0.5-0.5,0.9-0.3L76.3,136.9z M81,136.9
		c0.3,0,0.6,0.3,0.6,0.6c0,0.3-0.3,0.6-0.6,0.6c-0.3,0-0.6-0.3-0.6-0.6c0,0,0,0,0,0c-0.3-0.2-0.5-0.6-0.3-0.9s0.6-0.5,0.9-0.3
		L81,136.9z M85.7,136.9c0.3,0,0.6,0.3,0.6,0.6S86,138,85.7,138c-0.3,0-0.6-0.3-0.6-0.6l0,0c-0.4-0.2-0.5-0.6-0.4-0.9
		c0.2-0.4,0.6-0.5,0.9-0.4L85.7,136.9z M90.3,136.9c0.3,0,0.6,0.3,0.6,0.6s-0.3,0.6-0.6,0.6c-0.3,0-0.6-0.3-0.6-0.6l0,0
		c-0.4-0.2-0.5-0.6-0.4-0.9c0.2-0.4,0.6-0.5,0.9-0.4l0,0L90.3,136.9z M95,136.9c0.3,0,0.6,0.3,0.6,0.6c0,0.3-0.3,0.6-0.6,0.6
		c-0.4,0-0.6-0.4-0.6-0.6c-0.4-0.1-0.5-0.6-0.4-0.9s0.6-0.5,0.9-0.4L95,136.9z M99.7,136.9c0.3,0,0.6,0.3,0.6,0.6
		c0,0.3-0.3,0.6-0.6,0.6c-0.3,0-0.6-0.3-0.6-0.6c-0.4-0.2-0.6-0.6-0.4-1c0.2-0.4,0.6-0.6,1-0.4L99.7,136.9z M74.9,135.9
		c0.3,0,0.6,0.2,0.6,0.5c0,0,0,0,0,0c0,0.3-0.2,0.6-0.5,0.6s-0.6-0.2-0.6-0.5c0,0,0,0,0,0C74.3,136.1,74.6,135.9,74.9,135.9
		C74.9,135.9,74.9,135.9,74.9,135.9z M79.5,135.9c0.3,0,0.6,0.2,0.6,0.5s-0.2,0.6-0.5,0.6c0,0-0.1,0-0.1,0c-0.3,0-0.5-0.3-0.5-0.6
		C79.1,136.1,79.3,135.9,79.5,135.9z M84.2,135.9c0.3,0,0.6,0.2,0.6,0.5s-0.2,0.6-0.5,0.6c0,0-0.1,0-0.1,0c-0.3,0-0.5-0.3-0.5-0.6
		C83.8,136.1,84,135.9,84.2,135.9z M88.9,135.9c0.3,0,0.5,0.3,0.6,0.6c0,0.3-0.3,0.5-0.6,0.5c-0.3,0-0.4-0.2-0.5-0.5
		c-0.1-0.3,0.2-0.6,0.5-0.7c0,0,0.1,0,0.1,0L88.9,135.9z M93.6,135.9c0.3,0,0.5,0.3,0.6,0.6c0,0.3-0.3,0.5-0.6,0.6
		c-0.3,0-0.5-0.3-0.6-0.6c-0.1-0.3,0.1-0.6,0.4-0.7c0,0,0.1,0,0.1,0L93.6,135.9z M98.2,135.9c0.3,0,0.5,0.3,0.5,0.6
		c0,0.3-0.2,0.4-0.5,0.5c-0.3,0-0.5-0.3-0.6-0.6c-0.1-0.3,0.1-0.6,0.4-0.7c0.1,0,0.1,0,0.2,0V135.9z M102.9,135.9
		c0.3,0,0.6,0.2,0.6,0.5s-0.2,0.6-0.5,0.6c0,0-0.1,0-0.1,0c-0.3,0-0.5-0.3-0.5-0.6C102.5,136.1,102.6,135.9,102.9,135.9z
		 M73.5,135.6c0.3,0,0.5,0.2,0.5,0.5c0,0.3-0.2,0.5-0.5,0.5l0,0c-0.3,0.1-0.6-0.1-0.6-0.4c-0.1-0.3,0.1-0.6,0.4-0.6
		C73.3,135.7,73.4,135.7,73.5,135.6L73.5,135.6z M78.2,135.6c0.3,0,0.5,0.2,0.5,0.5c0,0.3-0.2,0.5-0.5,0.5c-0.3,0-0.5-0.2-0.5-0.5
		c0,0,0,0,0,0c-0.1-0.3-0.1-0.6,0.2-0.7c0.1-0.1,0.2-0.1,0.3-0.1L78.2,135.6z M82.8,135.6c0.3,0.1,0.4,0.4,0.3,0.7
		c-0.1,0.2-0.2,0.3-0.3,0.3c-0.3,0-0.5-0.2-0.5-0.5l0,0c-0.1-0.3-0.1-0.6,0.2-0.7c0.1-0.1,0.2-0.1,0.3-0.1L82.8,135.6z M87.5,135.6
		c0.3,0.1,0.5,0.3,0.4,0.6c-0.1,0.3-0.3,0.5-0.6,0.4c-0.3-0.1-0.5-0.3-0.4-0.6c0-0.1,0-0.1,0.1-0.2c0-0.3,0.2-0.6,0.5-0.6
		c0,0,0,0,0.1,0L87.5,135.6z M92.2,135.6c0.3,0.1,0.4,0.4,0.4,0.6c0,0.2-0.2,0.3-0.4,0.4c-0.3,0.1-0.6-0.1-0.6-0.4
		c-0.1-0.3,0.1-0.6,0.4-0.6C92,135.6,92.1,135.6,92.2,135.6z M96.8,135.6c0.3,0,0.5,0.2,0.5,0.5c0,0.3-0.2,0.5-0.5,0.5
		c-0.3,0-0.5-0.2-0.5-0.5c-0.3-0.1-0.3-0.5-0.2-0.7c0.1-0.3,0.5-0.3,0.7-0.2L96.8,135.6z M101.5,135.6c0.3,0.1,0.4,0.4,0.3,0.7
		c-0.1,0.2-0.2,0.3-0.3,0.3c-0.3,0-0.5-0.2-0.5-0.5l0,0c-0.2-0.2-0.3-0.5-0.1-0.7c0.1-0.2,0.4-0.3,0.7-0.2L101.5,135.6z M76.7,135.4
		c0.3,0,0.5,0.2,0.5,0.4c0,0,0,0,0,0c0,0.3-0.2,0.5-0.5,0.5s-0.5-0.2-0.5-0.5l0,0c-0.3-0.1-0.4-0.5-0.2-0.7s0.5-0.4,0.7-0.2
		L76.7,135.4z M81.4,135.4c0.3,0,0.5,0.2,0.5,0.5c0,0.3-0.2,0.5-0.5,0.5c-0.3,0-0.5-0.2-0.5-0.5c0,0,0,0,0,0
		c-0.3-0.1-0.4-0.5-0.3-0.7s0.5-0.4,0.7-0.3L81.4,135.4z M86.1,135.4c0.3,0,0.5,0.2,0.5,0.5c0,0,0,0,0,0c0,0.3-0.2,0.5-0.5,0.5
		s-0.5-0.2-0.5-0.5l0,0c-0.3-0.1-0.4-0.5-0.2-0.8c0.1-0.3,0.5-0.4,0.8-0.2V135.4z M90.8,135.4c0.3,0,0.5,0.2,0.5,0.5
		s-0.2,0.5-0.5,0.5c-0.3,0-0.5-0.2-0.5-0.5c0,0,0,0,0,0c-0.3-0.1-0.4-0.5-0.3-0.8c0.1-0.3,0.5-0.4,0.8-0.3l0,0V135.4z M95.4,135.4
		c0.3,0,0.5,0.2,0.5,0.5l0,0c0,0.3-0.2,0.5-0.5,0.5s-0.5-0.2-0.5-0.5l0,0c-0.3-0.1-0.4-0.5-0.3-0.8s0.5-0.4,0.8-0.3L95.4,135.4z
		 M100.1,135.4c0.3,0,0.5,0.2,0.5,0.5c0,0.3-0.2,0.5-0.5,0.5c-0.3,0-0.5-0.2-0.5-0.5S99.8,135.4,100.1,135.4L100.1,135.4z
		 M104.8,135.4c0.3,0,0.5,0.2,0.5,0.5s-0.2,0.5-0.5,0.5s-0.5-0.2-0.5-0.5S104.5,135.4,104.8,135.4z M75.3,135.2
		c0.3,0,0.5,0.2,0.5,0.5c0,0.3-0.2,0.5-0.5,0.5c-0.3,0-0.5-0.2-0.5-0.5c-0.3-0.1-0.4-0.5-0.3-0.8s0.5-0.4,0.8-0.3L75.3,135.2z
		 M80,135.2c0.3,0,0.5,0.2,0.5,0.5c0,0.3-0.2,0.5-0.5,0.5s-0.5-0.2-0.5-0.5c0,0,0,0,0,0c-0.3-0.1-0.5-0.5-0.3-0.8
		c0.1-0.3,0.5-0.5,0.8-0.3L80,135.2z M84.7,135.2c0.3,0,0.5,0.2,0.5,0.5c0,0.3-0.2,0.5-0.5,0.5c-0.3,0-0.5-0.2-0.5-0.5
		c-0.3-0.1-0.5-0.5-0.4-0.8c0.1-0.3,0.5-0.5,0.8-0.4l0,0L84.7,135.2z M89.4,135.2c0.3,0,0.5,0.1,0.5,0.4s-0.1,0.5-0.4,0.5
		c0,0-0.1,0-0.1,0c-0.3,0.1-0.7-0.1-0.8-0.4c-0.1-0.3,0.1-0.7,0.4-0.8c0-0.2,0.2-0.4,0.4-0.4L89.4,135.2z M94,135.2
		c0.3,0,0.5,0.2,0.5,0.5c0,0.3-0.2,0.5-0.5,0.5c-0.3,0-0.5-0.2-0.5-0.5c-0.3-0.1-0.5-0.5-0.4-0.8c0.1-0.3,0.5-0.5,0.8-0.4L94,135.2z
		 M98.7,135.2c0.3,0,0.5,0.2,0.5,0.4c0,0.3-0.2,0.5-0.4,0.5c-0.3,0-0.5-0.2-0.5-0.4c0,0,0,0,0,0c-0.3-0.1-0.5-0.5-0.4-0.8
		c0.1-0.3,0.5-0.5,0.8-0.4L98.7,135.2z M103.4,135.2c0.3,0,0.5,0.2,0.5,0.5c0,0.3-0.2,0.5-0.5,0.5c-0.3,0-0.5-0.2-0.5-0.5
		C102.9,135.4,103.1,135.2,103.4,135.2C103.4,135.2,103.4,135.2,103.4,135.2z M78.6,134.9c0.2,0,0.4,0.2,0.4,0.4
		c0,0.2-0.2,0.4-0.4,0.4s-0.4-0.2-0.4-0.4c0,0,0,0,0,0c-0.3-0.1-0.5-0.5-0.4-0.8c0.1-0.3,0.5-0.5,0.8-0.4L78.6,134.9z M83.3,134.9
		c0.2,0,0.4,0.2,0.4,0.4c0,0,0,0,0,0c0,0.2-0.1,0.5-0.4,0.5s-0.5-0.1-0.5-0.4c0,0,0-0.1,0-0.1c-0.4-0.1-0.5-0.5-0.4-0.9
		c0.1-0.4,0.5-0.5,0.9-0.4l0,0L83.3,134.9z M88,134.9c0.2,0,0.4,0.2,0.4,0.4s-0.2,0.4-0.4,0.4s-0.4-0.2-0.4-0.4c0,0,0,0,0,0
		c-0.4-0.1-0.6-0.5-0.5-0.9c0.1-0.4,0.5-0.6,0.9-0.5L88,134.9z M92.6,134.9c0.2,0,0.4,0.2,0.4,0.4c0,0.2-0.2,0.4-0.4,0.4
		s-0.4-0.2-0.4-0.4l0,0c-0.4-0.1-0.6-0.5-0.5-0.9c0.1-0.4,0.5-0.6,0.9-0.5V134.9z M97.3,134.9c0.2,0,0.5,0.1,0.5,0.4
		c0,0.2-0.1,0.5-0.4,0.5c0,0-0.1,0-0.1,0c-0.2,0-0.4-0.3-0.4-0.5C97,135.1,97.1,134.9,97.3,134.9z M102,134.9c0.3,0,0.4,0.3,0.4,0.4
		c0,0.2-0.2,0.4-0.4,0.4c-0.3,0-0.4-0.3-0.4-0.4c-0.4-0.1-0.6-0.5-0.5-0.9c0.1-0.4,0.5-0.6,0.9-0.5l0,0L102,134.9z M106.6,134.9
		c0.2,0,0.4,0.2,0.4,0.4c0,0.2-0.2,0.4-0.4,0.4c-0.2,0-0.4-0.2-0.4-0.4l0,0c-0.4-0.1-0.6-0.5-0.5-0.9c0.1-0.4,0.5-0.6,0.9-0.5
		L106.6,134.9z M81.9,134.6c0.2,0,0.4,0.2,0.4,0.4s-0.2,0.4-0.4,0.4c-0.2,0-0.4-0.2-0.4-0.4c0,0,0,0,0,0c-0.4-0.1-0.6-0.5-0.5-0.9
		c0.1-0.4,0.5-0.6,0.9-0.5l0,0L81.9,134.6z M86.6,134.6c0.2,0,0.4,0.2,0.4,0.4c0,0.2-0.2,0.4-0.4,0.4c-0.2,0-0.4-0.2-0.3-0.5
		C86.3,134.8,86.4,134.6,86.6,134.6z M91.2,134.6c0.2,0,0.4,0.2,0.4,0.4c0,0.2-0.2,0.4-0.5,0.3c-0.2,0-0.3-0.2-0.3-0.3
		c-0.4-0.1-0.6-0.5-0.5-0.9s0.5-0.6,0.9-0.5l0,0V134.6z M95.9,134.6c0.2,0,0.4,0.2,0.4,0.4s-0.2,0.4-0.4,0.4s-0.4-0.2-0.4-0.4l0,0
		c-0.4-0.1-0.7-0.6-0.5-1c0.1-0.4,0.6-0.7,1-0.5L95.9,134.6z M105.2,134.6c0.2,0,0.3,0.1,0.4,0.3c0,0,0,0,0,0c0,0.2-0.2,0.4-0.4,0.4
		s-0.4-0.2-0.4-0.4c-0.4-0.1-0.7-0.5-0.6-0.9c0.1-0.4,0.5-0.7,0.9-0.6l0,0V134.6z M100.6,134.6c0.2,0,0.4,0.2,0.4,0.4
		c0,0.2-0.2,0.4-0.4,0.4c-0.2,0-0.4-0.2-0.4-0.4c-0.4-0.1-0.7-0.5-0.6-1s0.5-0.7,1-0.6l0,0V134.6z M109.9,134.6
		c0.2,0,0.3,0.1,0.4,0.3c0,0,0,0,0,0.1c0,0.2-0.1,0.3-0.3,0.4c0,0,0,0-0.1,0c-0.2,0-0.3-0.1-0.4-0.3c0,0,0,0,0-0.1
		c-0.4-0.1-0.7-0.5-0.6-1c0.1-0.4,0.5-0.7,1-0.6l0,0V134.6z M80.5,134.4c0.2,0,0.4,0.2,0.4,0.4s-0.2,0.4-0.4,0.4
		c-0.2,0-0.4-0.3-0.4-0.4c-0.4-0.1-0.7-0.5-0.6-1c0.1-0.4,0.5-0.7,1-0.6l0,0L80.5,134.4z M89.8,134.4c0.2,0,0.3,0.1,0.3,0.3
		c0,0,0,0,0,0c0,0.2-0.2,0.3-0.4,0.3c-0.1,0-0.2-0.1-0.3-0.3c-0.4-0.1-0.7-0.5-0.6-0.9s0.5-0.7,0.9-0.6L89.8,134.4z M85.2,134.4
		c0.2,0,0.3,0.2,0.4,0.4c0,0.2-0.3,0.4-0.4,0.4c-0.2,0-0.4-0.2-0.4-0.4S85,134.4,85.2,134.4z M94.5,134.4c0.2,0,0.3,0.1,0.3,0.3
		c0,0,0,0,0,0c0,0.2-0.1,0.3-0.3,0.3c-0.2,0-0.3-0.1-0.3-0.3C94.1,134.5,94.3,134.4,94.5,134.4C94.5,134.4,94.5,134.4,94.5,134.4z
		 M99.2,134.4c0.2,0,0.3,0.1,0.3,0.3c0,0,0,0,0,0c0,0.2-0.1,0.3-0.3,0.3c0,0,0,0,0,0c-0.2,0-0.3-0.1-0.3-0.3S99,134.4,99.2,134.4z
		 M103.8,134.4c0.2,0,0.3,0.1,0.3,0.3c0,0,0,0,0,0.1c0,0.2-0.1,0.3-0.3,0.3c0,0,0,0,0,0c-0.2,0-0.3-0.1-0.3-0.3c0,0,0,0,0,0
		c-0.5-0.1-0.7-0.5-0.7-1c0.1-0.5,0.5-0.7,1-0.7l0,0L103.8,134.4z M108.5,134.4c0.2,0,0.3,0.1,0.3,0.3c0,0.2-0.1,0.3-0.3,0.3l0,0
		c-0.2,0-0.3-0.1-0.3-0.3c0,0,0,0,0,0c-0.5-0.1-0.8-0.5-0.7-1c0.1-0.5,0.5-0.8,1-0.7l0,0L108.5,134.4z M83.8,134.1
		c0.2,0,0.3,0.1,0.3,0.3c0,0.2-0.1,0.3-0.3,0.3c-0.2,0-0.3-0.1-0.3-0.3c-0.5-0.1-0.8-0.5-0.7-1c0.1-0.5,0.5-0.8,1-0.7L83.8,134.1z
		 M88.4,134.1c0.2,0,0.3,0.2,0.2,0.3c0,0.1-0.1,0.2-0.2,0.2c-0.2,0-0.3-0.1-0.3-0.3c-0.5-0.1-0.8-0.5-0.7-1c0.1-0.5,0.5-0.8,1-0.7
		L88.4,134.1z M93.1,134.1c0.2,0,0.3,0.1,0.3,0.2c0,0.2-0.1,0.3-0.2,0.3c0,0-0.1,0-0.1,0c-0.2,0-0.3-0.2-0.2-0.3
		C92.9,134.2,93,134.1,93.1,134.1z M97.8,134.1c0.2,0,0.3,0.1,0.3,0.3c0,0.2-0.1,0.3-0.3,0.3s-0.3-0.1-0.3-0.3
		C97.5,134.2,97.6,134.1,97.8,134.1L97.8,134.1z M102.4,134.1c0.2,0,0.3,0.1,0.3,0.3c0,0.2-0.1,0.3-0.3,0.3s-0.3-0.1-0.3-0.3l0,0
		c-0.5-0.1-0.8-0.5-0.7-1c0.1-0.5,0.5-0.8,1-0.7L102.4,134.1z M107.1,134.1c0.2,0,0.3,0.1,0.3,0.3c0,0.2-0.2,0.3-0.3,0.2
		c-0.1,0-0.2-0.1-0.2-0.2c-0.5-0.1-0.8-0.6-0.8-1.1c0.1-0.5,0.6-0.8,1.1-0.8l0,0L107.1,134.1z M111.7,134.1c0.2,0,0.3,0.1,0.3,0.3
		c0,0.2-0.1,0.3-0.3,0.3c-0.2,0-0.3-0.1-0.3-0.3c-0.5-0.1-0.9-0.6-0.8-1.1c0.1-0.5,0.6-0.9,1.1-0.8L111.7,134.1z M82.3,133.9
		c0.2,0,0.3,0.2,0.3,0.3c0,0.1-0.1,0.3-0.3,0.3c-0.1,0-0.3-0.1-0.3-0.3c-0.5-0.1-0.8-0.5-0.8-1s0.5-0.8,1-0.8l0,0L82.3,133.9z
		 M87,133.9c0.2,0,0.3,0.2,0.3,0.3s-0.2,0.3-0.3,0.3c-0.1,0-0.3-0.1-0.3-0.3c-0.5-0.1-0.9-0.5-0.8-1.1c0.1-0.5,0.5-0.9,1.1-0.8
		L87,133.9z M96.4,133.9c0.2,0,0.2,0.1,0.2,0.2s-0.1,0.2-0.2,0.2s-0.2-0.1-0.2-0.2s0.1-1.8,0.2-1.8L96.4,133.9z M91.7,133.9
		c0.2,0,0.3,0.2,0.3,0.3s-0.2,0.3-0.3,0.3s-0.3-0.2-0.3-0.3s0.2-1.9,0.3-1.9L91.7,133.9z M101,133.9c0.1,0,0.2,0.1,0.2,0.2
		c0,0,0,0,0,0.1c0,0.2-0.1,0.2-0.2,0.2s-0.2-0.1-0.2-0.2c-0.5-0.1-0.9-0.5-0.8-1.1s0.5-0.9,1.1-0.8l0,0L101,133.9z M105.7,133.9
		c0.1,0,0.2,0.1,0.2,0.2c0,0.1-0.1,0.2-0.2,0.2l0,0c-0.1,0-0.2-0.1-0.2-0.2c0,0,0,0,0,0c-0.5-0.1-0.9-0.5-0.8-1.1
		c0.1-0.5,0.5-0.9,1.1-0.8l0,0L105.7,133.9z M110.3,133.9c0.1,0,0.2,0.1,0.2,0.2c0,0.1-0.1,0.2-0.2,0.2s-0.2-0.1-0.2-0.2
		C110.1,134,110.2,133.9,110.3,133.9z M85.6,131.9c0.1,0,0.2,0.1,0.2,0.2c0,0,0,0,0,0c0,0.1-0.1,0.2-0.2,0.2c0,0,0,0,0,0
		c-0.1,0-0.2-0.1-0.2-0.2c0,0,0,0,0,0C85.4,132,85.5,131.9,85.6,131.9C85.6,131.9,85.6,131.9,85.6,131.9z M90.3,131.9
		c0.1,0,0.2,0.1,0.2,0.2l0,0c0,0.1-0.1,0.2-0.2,0.2c0,0,0,0,0,0c-0.1,0-0.2-0.1-0.2-0.2C90.1,132,90.2,131.9,90.3,131.9
		C90.3,131.9,90.3,131.9,90.3,131.9z M94.9,131.9c0.1,0,0.2,0,0.2,0.2s0,0.2-0.2,0.2c0,0-0.1,0-0.1,0c-0.1,0-0.2-0.1-0.2-0.2
		C94.8,132,94.8,131.9,94.9,131.9z M99.6,131.9c0.1,0,0.2,0.1,0.2,0.2c0,0.1-0.1,0.2-0.2,0.2c-0.1,0-0.2-0.1-0.2-0.2
		c-0.1-0.1,0-0.2,0.1-0.3C99.5,131.8,99.6,131.8,99.6,131.9L99.6,131.9z M104.3,131.9c0.1,0,0.2,0.1,0.2,0.2c0,0.1-0.1,0.2-0.2,0.2
		c-0.1,0-0.2-0.1-0.2-0.2C104,132,104.1,131.8,104.3,131.9C104.2,131.8,104.2,131.8,104.3,131.9L104.3,131.9z M108.9,131.9
		c0.1,0,0.2,0.1,0.2,0.2c0,0.1-0.1,0.2-0.2,0.2c-0.1,0-0.2-0.1-0.2-0.2c-0.1-0.1,0-0.2,0.1-0.3c0,0,0.1,0,0.1,0V131.9z M113.6,131.9
		c0.1,0,0.2,0.1,0.2,0.2c0,0.1-0.1,0.2-0.2,0.2c-0.1,0-0.2-0.1-0.2-0.2c-0.1-0.1,0-0.3,0.1-0.3c0,0,0.1,0,0.1,0V131.9z M84.2,131.6
		c0.1,0,0.2,0.1,0,0.3c-0.1-0.2-0.2-0.2,0-0.5L84.2,131.6z M99.7,138.6l-0.6,0.2l-0.2,0.1l-0.8,0.3l-1.2,0.5c-0.3-0.3-0.3-0.7-0.1-1
		c0.1-0.1,0.3-0.2,0.5-0.2c0.5,0,0.7,0.3,0.8,0.8c0.1-0.2,0.4-0.3,0.6-0.4c0.1,0,0.1,0,0.2,0l0.2-0.1c-0.3,0-0.6-0.3-0.6-0.6
		c0-0.4,0.3-0.6,0.7-0.6c0.4,0,0.7,0.3,0.7,0.6C99.8,138.3,99.8,138.5,99.7,138.6L99.7,138.6z M71.7,135.8l2.2-0.7l0.4-0.1
		c-0.1,0.1-0.3,0.2-0.4,0.1l-1.3,0.5c0,0.3-0.2,0.5-0.4,0.5c0,0,0,0-0.1,0C71.9,136.1,71.7,136,71.7,135.8c0-0.1-0.1-0.1-0.1-0.1
		L71.7,135.8z M150.3,112.4c0.1,0,0.2-0.1,0.3-0.1c0-0.1-0.1-0.1-0.1-0.2c-0.1,0-0.1,0.1-0.2,0.1c0,0,0,0,0,0L150.3,112.4z
		 M145.6,112.4c0.1,0,0.2-0.1,0.3-0.1c-0.1-0.1-0.1-0.1-0.1-0.2c-0.1,0-0.1,0.1-0.2,0.2c0,0,0,0,0,0.1L145.6,112.4z M140.9,112.4
		l0.3-0.1c0-0.1-0.1-0.1-0.1-0.2c-0.1,0-0.1,0.1-0.2,0.2C140.9,112.3,140.9,112.3,140.9,112.4L140.9,112.4z M136.3,112.4
		c0.1,0,0.2-0.1,0.3-0.1c0-0.1-0.1-0.2-0.1-0.2c-0.1,0-0.1,0.1-0.2,0.1C136.1,112.2,136.2,112.3,136.3,112.4L136.3,112.4z
		 M131.6,112.4c0.1,0,0.2-0.1,0.2-0.1c0-0.1-0.1-0.2-0.1-0.2c-0.1,0-0.1,0.1-0.2,0.1C131.5,112.3,131.5,112.3,131.6,112.4
		L131.6,112.4z M151.7,112.8c0.1-0.1,0.2-0.1,0.3-0.2l-0.2-0.3c-0.1,0.1-0.2,0.1-0.3,0.1C151.6,112.6,151.6,112.7,151.7,112.8
		L151.7,112.8z M146.9,112.9c0.1-0.1,0.2-0.1,0.3-0.2l-0.2-0.3c-0.1,0.1-0.2,0.1-0.3,0.1C146.9,112.7,146.9,112.8,146.9,112.9z
		 M142.3,112.9c0.1-0.1,0.2-0.1,0.3-0.2c-0.1-0.1-0.1-0.2-0.2-0.3c-0.1,0.1-0.2,0.1-0.2,0.2C142.2,112.7,142.2,112.8,142.3,112.9z
		 M133,112.9c0.1-0.1,0.1-0.1,0.2-0.1c-0.1-0.1-0.1-0.2-0.2-0.3c-0.1,0.1-0.2,0.1-0.2,0.1C132.9,112.7,132.9,112.8,133,112.9z
		 M137.6,112.9c0.1-0.1,0.2-0.1,0.3-0.2c-0.1-0.1-0.1-0.2-0.2-0.3c-0.1,0.1-0.2,0.1-0.3,0.1C137.5,112.7,137.6,112.8,137.6,112.9z
		 M128.3,112.9c0.1-0.1,0.2-0.1,0.3-0.2c-0.1-0.1-0.1-0.2-0.2-0.3c-0.1,0.1-0.2,0.1-0.3,0.2S128.2,112.9,128.3,112.9L128.3,112.9z
		 M148.3,113.3c0.1-0.1,0.2-0.1,0.4-0.2c-0.1-0.1-0.1-0.2-0.2-0.3c-0.1,0.1-0.2,0.1-0.3,0.2C148.2,113.1,148.3,113.2,148.3,113.3
		L148.3,113.3z M143.6,113.3c0.1-0.1,0.2-0.2,0.4-0.2c-0.1-0.1-0.1-0.2-0.2-0.3c-0.1,0.1-0.2,0.1-0.3,0.1
		C143.5,113.1,143.6,113.2,143.6,113.3L143.6,113.3z M139,113.3c0.1-0.1,0.2-0.1,0.4-0.2c-0.1-0.1-0.1-0.3-0.2-0.3
		c-0.1,0.1-0.2,0.1-0.3,0.1C138.9,113.1,138.9,113.3,139,113.3L139,113.3z M134.3,113.4c0.1-0.1,0.3-0.2,0.4-0.2
		c-0.1-0.1-0.2-0.2-0.2-0.4c-0.1,0.1-0.2,0.1-0.3,0.2C134.2,113.2,134.3,113.4,134.3,113.4L134.3,113.4z M129.6,113.4
		c0.1-0.1,0.3-0.2,0.4-0.2c-0.1-0.1-0.2-0.2-0.2-0.4c-0.1,0.1-0.2,0.1-0.4,0.2c0.1,0.2,0.1,0.4,0.2,0.6L129.6,113.4z M149.6,113.8
		c0.1-0.1,0.3-0.2,0.5-0.3c-0.1-0.1-0.2-0.2-0.2-0.4c-0.1,0.1-0.3,0.1-0.4,0.2c0.2,0.1,0.3,0.4,0.2,0.6L149.6,113.8z M145,113.8
		c0.1-0.2,0.3-0.3,0.5-0.3c-0.1-0.1-0.2-0.3-0.2-0.4c-0.1,0.1-0.3,0.2-0.4,0.2c0.2,0.2,0.2,0.4,0.2,0.7L145,113.8z M140.3,113.8
		c0.1-0.1,0.3-0.3,0.5-0.3c-0.1-0.1-0.2-0.3-0.2-0.4c-0.1,0.1-0.3,0.2-0.4,0.2c0.2,0.2,0.3,0.4,0.3,0.7L140.3,113.8z M135.6,113.8
		c0.1-0.1,0.3-0.2,0.5-0.3c-0.1-0.1-0.2-0.3-0.2-0.4c-0.1,0.1-0.3,0.1-0.4,0.2c0.2,0.2,0.3,0.5,0.3,0.7L135.6,113.8z M131,113.8
		c0.1-0.1,0.3-0.2,0.5-0.3c-0.1-0.1-0.2-0.3-0.2-0.4c-0.1,0.1-0.3,0.1-0.4,0.2c0.2,0.2,0.3,0.5,0.3,0.8L131,113.8z M126.3,113.8
		c0.1-0.1,0.3-0.3,0.5-0.3c-0.1-0.1-0.2-0.3-0.3-0.4c-0.1,0.1-0.3,0.2-0.4,0.2c0.2,0.2,0.3,0.5,0.3,0.8L126.3,113.8z M146.3,114.2
		c0.1-0.2,0.3-0.3,0.6-0.4c-0.1-0.2-0.3-0.3-0.3-0.5c-0.2,0.1-0.3,0.2-0.5,0.2c0.3,0.2,0.4,0.6,0.3,0.9L146.3,114.2z M141.6,114.2
		c0.1-0.2,0.4-0.3,0.6-0.4c-0.1-0.1-0.2-0.3-0.3-0.5c-0.2,0.1-0.3,0.2-0.5,0.2c0.3,0.2,0.4,0.6,0.3,1L141.6,114.2z M137,114.2
		c0.1-0.2,0.4-0.4,0.6-0.4c-0.2-0.1-0.3-0.3-0.3-0.5c-0.2,0.1-0.4,0.2-0.5,0.2c0.4,0.2,0.5,0.6,0.3,1c0,0,0,0,0,0L137,114.2z
		 M132.3,114.2c0.1-0.2,0.4-0.4,0.6-0.4c-0.1-0.1-0.3-0.3-0.3-0.5c-0.2,0.1-0.3,0.2-0.5,0.2c0.4,0.2,0.5,0.6,0.3,1c0,0,0,0,0,0
		L132.3,114.2z M127.7,114.2c0.1-0.2,0.4-0.3,0.6-0.4c-0.2-0.1-0.3-0.3-0.3-0.5c-0.2,0.1-0.4,0.2-0.6,0.2c0.4,0.2,0.5,0.7,0.3,1.1
		L127.7,114.2z M147.7,114.6c0.1-0.3,0.4-0.5,0.7-0.5c-0.2-0.1-0.3-0.3-0.4-0.6c-0.2,0.2-0.4,0.3-0.6,0.3c0.4,0.7,0.4,1,0.4,1.2
		L147.7,114.6z M143,114.7c0.1-0.3,0.4-0.5,0.7-0.5c-0.2-0.1-0.3-0.3-0.4-0.6c-0.2,0.2-0.4,0.3-0.6,0.3c0.1,0.1,0.2,0.3,0.3,0.4
		L143,114.7z M235.7,1.7c1.8,3.3,3.4,6.8,5,10.2c3.3,6.7,2.1,13.1-0.5,19.7c-0.9,2.3-1.9,4.4-3.1,6.5c-0.1,0.2-0.2,0.4-0.3,0.6v8.4
		h-5.4c-2.2,3.1-4.6,6.1-7.1,9h10V78h-29.5v9.4h33v21.8H173v-9.4c-2.8,1.9-5.7,3.8-8.6,5.6v3.7h-6c-2.9,1.8-5.9,3.6-8.9,5.3
		c-0.2,0-0.4,0.1-0.6,0.3l-1.2,0.7c0-0.1,0-0.3,0-0.4c-0.2,0.5-0.4,0.5-0.7,0.5c-0.4,0-0.7-0.3-0.7-0.7c0,0,0-0.1,0-0.1
		c-0.2,0.4-0.6,0.3-0.9,0.4c0.4,0.1,0.5,0.5,0.4,0.9c-0.1,0.3-0.4,0.5-0.7,0.5c-0.4,0-0.7-0.3-0.7-0.7c0-0.4,0.3-0.7,0.7-0.7
		c0,0,0.1,0,0.1,0c-0.3-0.1-0.4-0.4-0.5-0.7c-0.2,0.2-0.5,0.3-0.7,0.3c0.2,0.1,0.3,0.4,0.3,0.6c0,0.4-0.3,0.7-0.7,0.7
		c-0.4,0-0.7-0.4-0.7-0.8c0-0.1,0-0.1,0-0.2c-0.2,0.5-0.4,0.5-0.7,0.5c-0.4,0-0.7-0.3-0.7-0.7c0,0,0-0.1,0-0.1
		c-0.2,0.4-0.6,0.3-0.9,0.4c0.3,0.1,0.4,0.4,0.4,0.6c0,0.4-0.3,0.7-0.7,0.7c-0.4,0-0.7-0.3-0.7-0.7c0-0.4,0.4-0.7,0.8-0.7
		c0,0,0.1,0,0.1,0c-0.3-0.1-0.5-0.4-0.5-0.7c-0.2,0.3-0.5,0.3-0.7,0.3c0.2,0.1,0.4,0.4,0.4,0.6c0,0.4-0.3,0.7-0.7,0.7
		c-0.4,0-0.7-0.3-0.7-0.7c0-0.4,0.2-0.6,0.8-0.7c-0.2-0.1-0.3-0.5-0.4-0.6c-0.1,0.2-0.5,0.2-0.6,0.3c0.2,0.1,0.3,0.3,0.3,0.6
		c0,0.4-0.3,0.7-0.7,0.7c0,0,0,0-0.1,0c-0.4,0-0.7-0.3-0.8-0.7c0,0,0,0,0-0.1c-0.2,0.3-0.6,0.5-1,0.4c0.3,0.1,0.5,0.3,0.5,0.7
		c0,0.4-0.3,0.7-0.7,0.7c-0.4,0-0.7-0.3-0.7-0.7c0-0.4,0.3-0.7,0.7-0.7c0,0,0.1,0,0.1,0c-0.3-0.1-0.5-0.4-0.5-0.7
		c-0.2,0.2-0.5,0.3-0.7,0.3c0.3,0.2,0.4,0.6,0.2,1c-0.2,0.3-0.6,0.4-1,0.2c-0.2-0.1-0.3-0.4-0.3-0.6c0-0.4,0.4-0.7,0.8-0.7
		c-0.2-0.1-0.3-0.4-0.4-0.6c-0.1,0.2-0.5,0.2-0.6,0.3c0.2,0.1,0.3,0.3,0.3,0.6c0,0.4-0.3,0.7-0.7,0.7c0,0,0,0-0.1,0
		c-0.4,0-0.7-0.3-0.7-0.7c0,0,0-0.1,0-0.1c-0.1,0.2-0.4,0.4-0.7,0.4c-0.4,0-0.7-0.2-0.8-0.8c-0.2,0.2-0.4,0.3-0.7,0.3
		c0.2,0.1,0.4,0.4,0.4,0.6c0,0.4-0.2,0.8-0.6,0.8s-0.8-0.2-0.8-0.6c0-0.1,0-0.1,0-0.2c0-0.4,0.4-0.7,0.8-0.7
		c-0.2-0.1-0.3-0.4-0.4-0.6c-0.1,0.2-0.5,0.2-0.6,0.3c0.2,0.1,0.3,0.3,0.3,0.6c0,0.4-0.3,0.7-0.7,0.7c0,0,0,0,0,0
		c-0.4,0-0.7-0.3-0.7-0.7c0,0,0-0.1,0-0.1c-0.3,0.3-0.4,0.4-0.7,0.4c-0.4,0-0.8-0.3-0.8-0.8c-0.2,0.2-0.4,0.3-0.7,0.3
		c0.2,0.1,0.3,0.4,0.4,0.6c0,0.4-0.3,0.7-0.7,0.7s-0.7-0.3-0.7-0.7c0-0.4,0.4-0.7,0.8-0.7c-0.2-0.1-0.3-0.4-0.4-0.6
		c-0.2,0.2-0.5,0.2-0.6,0.3c0.3,0.3,0.3,0.3,0.3,0.6c0,0.4-0.3,0.7-0.7,0.7c0,0,0,0-0.1,0c-0.4,0-0.7-0.4-0.7-0.8c0,0,0-0.1,0-0.1
		c-0.1,0.3-0.4,0.4-0.7,0.4c-0.2,0-0.4-0.1-0.6-0.3l-0.6,0.5c0,0.4-0.3,0.7-0.7,0.7c-0.2,0-0.4-0.1-0.5-0.3l-0.7,0.5
		c0,0.4-0.3,0.6-0.6,0.7c0,0,0,0,0,0c-0.2,0-0.4-0.1-0.5-0.3l1.8-0.9l1.8-0.9l1.3-0.6c0,0.1,0,0.2,0,0.3c0.2-0.3,0.5-0.4,0.5-0.5
		l1.4-0.7c0.2,0,0.3-0.1,0.4-0.2c6.1-3.1,11.8-6.2,17-9.1c29.3-16.5,78.1-50.6,92-81.6C237.2,16.2,239.3,8.3,235.7,1.7z M44.2,142.4
		c-0.1,0-0.2,0.1-0.3,0.1c0.1,0.1,0.1,0.1,0.1,0.2c0.1,0,0.1-0.1,0.2-0.1C44.3,142.5,44.2,142.5,44.2,142.4z M48.9,142.4l-0.3,0.1
		c0.1,0.1,0.1,0.1,0.1,0.2c0.1,0,0.1-0.1,0.2-0.1C48.9,142.5,48.9,142.5,48.9,142.4L48.9,142.4z M53.5,142.4c-0.1,0-0.2,0.1-0.3,0.1
		c0,0.1,0.1,0.1,0.1,0.2c0.1,0,0.1-0.1,0.2-0.1C53.6,142.5,53.6,142.4,53.5,142.4L53.5,142.4z M58.2,142.4c-0.1,0-0.2,0.1-0.3,0.1
		c0,0.1,0.1,0.2,0.1,0.2c0.1,0,0.1-0.1,0.2-0.1c0-0.2-0.1-0.3-0.1-0.4V142.4z M62.9,142.4c-0.1,0.1-0.2,0.1-0.2,0.1
		c0,0.1,0.1,0.2,0.1,0.2c0.1,0,0.1-0.1,0.2-0.1c0-0.1-0.1-0.3-0.1-0.4V142.4z M67.5,142.4c-0.1,0.1-0.2,0.1-0.3,0.1
		c0,0.1,0.1,0.2,0.1,0.2c0.1,0,0.1-0.1,0.2-0.1c-0.1-0.1-0.1-0.3-0.1-0.4V142.4z M72.2,142.4c-0.1,0.1-0.2,0.1-0.3,0.1
		c0,0.1,0.1,0.1,0.1,0.2c0.1,0,0.1-0.1,0.2-0.1c-0.1-0.1-0.1-0.3-0.1-0.4L72.2,142.4z M76.9,142.4c-0.1,0.1-0.2,0.1-0.3,0.1
		c0,0.1,0.1,0.2,0.1,0.3c0.1,0,0.2-0.1,0.2-0.1c0-0.3-0.1-0.4-0.1-0.5V142.4z M81.6,142.4c-0.1,0.1-0.2,0.1-0.3,0.1
		c0,0.1,0.1,0.2,0.2,0.3l0.2-0.1c0-0.4-0.1-0.4-0.1-0.5L81.6,142.4z M86.2,142.4c-0.1,0.1-0.2,0.1-0.3,0.1c0,0.1,0.1,0.2,0.2,0.3
		l0.2-0.1c0-0.4-0.1-0.5-0.1-0.6V142.4z M47.5,141.9c-0.1,0.1-0.2,0.1-0.3,0.2l0.2,0.3l0.3-0.1C47.6,142.1,47.5,142,47.5,141.9z
		 M52.1,141.9c-0.1,0.1-0.2,0.1-0.3,0.2c0.1,0.1,0.1,0.2,0.2,0.3c0.1-0.1,0.2-0.1,0.2-0.1C52.2,142.1,52.2,142,52.1,141.9z
		 M61.4,141.9c-0.1,0.1-0.2,0.1-0.2,0.1c0.1,0.1,0.1,0.2,0.2,0.3c0.1-0.1,0.2-0.1,0.2-0.1C61.6,142,61.5,141.9,61.4,141.9
		L61.4,141.9z M56.8,141.9c-0.1,0.1-0.2,0.1-0.3,0.2c0.1,0.1,0.1,0.2,0.2,0.3c0.1-0.1,0.2-0.1,0.3-0.1
		C56.9,142.1,56.8,141.9,56.8,141.9L56.8,141.9z M66.1,141.8c-0.1,0.1-0.2,0.1-0.3,0.2c0.1,0.1,0.1,0.2,0.2,0.3
		c0.1-0.1,0.2-0.1,0.3-0.2C66.2,142,66.2,141.9,66.1,141.8L66.1,141.8z M70.8,141.8c-0.1,0.1-0.2,0.1-0.3,0.2
		c0.1,0.1,0.1,0.2,0.2,0.3c0.1-0.1,0.2-0.1,0.2-0.2s-0.1-0.3-0.1-0.4L70.8,141.8z M75.5,141.8c-0.1,0-0.2,0.1-0.3,0.2
		c0.1,0.1,0.1,0.2,0.2,0.3c0.1-0.1,0.2-0.1,0.3-0.1c0-0.2-0.1-0.3-0.1-0.5V141.8z M80.2,141.7c-0.1,0.1-0.2,0.2-0.3,0.2
		c0.1,0.1,0.1,0.2,0.2,0.3c0.1-0.1,0.2-0.1,0.3-0.2c-0.1-0.1-0.1-0.3-0.1-0.5V141.7z M84.9,141.7c-0.1,0.1-0.2,0.2-0.3,0.2
		c0.1,0.1,0.1,0.2,0.2,0.3c0.1-0.1,0.2-0.1,0.3-0.2c-0.1-0.1-0.2-0.3-0.1-0.5V141.7z M89.5,141.7c-0.1,0.1-0.2,0.1-0.3,0.2
		c0.1,0.1,0.1,0.2,0.2,0.4c0.1-0.1,0.2-0.1,0.3-0.2c-0.1-0.2-0.2-0.4-0.1-0.6V141.7z M50.8,141.5c-0.1,0.1-0.2,0.2-0.4,0.2
		c0.1,0.1,0.2,0.2,0.3,0.4c0.1-0.1,0.2-0.1,0.3-0.1c-0.1-0.4-0.1-0.5-0.2-0.6L50.8,141.5z M55.4,141.5c-0.1,0.1-0.2,0.2-0.4,0.2
		c0.1,0.1,0.1,0.3,0.2,0.4c0.1-0.1,0.2-0.1,0.3-0.1c-0.1-0.2-0.1-0.4-0.2-0.7L55.4,141.5z M60.1,141.5c-0.1,0.1-0.3,0.2-0.4,0.2
		c0.1,0.1,0.2,0.1,0.3,0.2c0.1-0.1,0.2-0.1,0.3-0.2c-0.1-0.2-0.1-0.3-0.2-0.5L60.1,141.5z M64.8,141.5c-0.1,0.1-0.3,0.2-0.4,0.2
		c0.1,0.1,0.2,0.2,0.2,0.4c0.1-0.1,0.2-0.1,0.3-0.2c-0.1-0.2-0.2-0.5-0.2-0.7L64.8,141.5z M69.4,141.5c-0.1,0.1-0.3,0.2-0.4,0.2
		c0.1,0.1,0.2,0.2,0.2,0.4c0.1-0.1,0.2-0.1,0.3-0.2c-0.1-0.5-0.1-0.6-0.2-0.8L69.4,141.5z M74.1,141.5c-0.1,0.1-0.3,0.2-0.4,0.2
		c0.1,0.1,0.2,0.2,0.2,0.4c0.1-0.1,0.2-0.1,0.3-0.2c-0.1-0.3-0.1-0.5-0.2-0.8L74.1,141.5z M83.4,141.4c-0.1,0.1-0.2,0.2-0.4,0.2
		c0.1,0.1,0.2,0.3,0.2,0.4c0.1-0.1,0.2-0.1,0.4-0.2c-0.2-0.2-0.3-0.5-0.2-0.8L83.4,141.4z M78.8,141.4c-0.1,0.1-0.3,0.2-0.4,0.3
		c0.1,0.1,0.2,0.3,0.2,0.4c0.1-0.1,0.3-0.2,0.4-0.2c-0.1-0.3-0.2-0.5-0.2-0.8L78.8,141.4z M88.2,141.4c-0.1,0.1-0.3,0.2-0.4,0.2
		l0.2,0.4c0.1-0.1,0.2-0.1,0.4-0.2c-0.3-0.2-0.3-0.5-0.2-0.8L88.2,141.4z M54.1,141.1c-0.1,0.1-0.3,0.2-0.5,0.3
		c0.1,0.1,0.2,0.3,0.2,0.4c0.1-0.1,0.3-0.2,0.4-0.2c-0.3-0.2-0.3-0.6-0.2-0.9L54.1,141.1z M58.7,141.1c-0.1,0.1-0.3,0.2-0.5,0.3
		c0.1,0.1,0.2,0.3,0.2,0.4c0.2-0.1,0.3-0.2,0.5-0.2c-0.3-0.2-0.4-0.6-0.2-0.9L58.7,141.1z M63.4,141.1c-0.2,0.2-0.4,0.2-0.5,0.3
		c0.1,0.1,0.2,0.3,0.2,0.4c0.1-0.1,0.3-0.1,0.4-0.2c-0.2-0.3-0.3-0.6-0.2-1L63.4,141.1z M68.1,141.1c-0.1,0.1-0.3,0.3-0.5,0.3
		c0.1,0.1,0.2,0.3,0.3,0.4c0.1-0.1,0.3-0.2,0.4-0.2c-0.3-0.3-0.3-0.6-0.2-1L68.1,141.1z M72.7,141.1c-0.2,0.2-0.4,0.2-0.5,0.3
		c0.1,0.1,0.2,0.3,0.3,0.4c0.1-0.1,0.3-0.2,0.4-0.2c-0.2-0.3-0.3-0.7-0.2-1L72.7,141.1z M77.4,141.1c-0.2,0.2-0.4,0.2-0.5,0.3
		c0.1,0.1,0.2,0.3,0.3,0.4c0.1-0.1,0.3-0.2,0.4-0.2c-0.3-0.3-0.4-0.7-0.2-1.1L77.4,141.1z M82.1,141c-0.1,0.2-0.4,0.3-0.5,0.3
		c0.1,0.1,0.2,0.3,0.3,0.4c0.1-0.1,0.3-0.2,0.4-0.2c-0.2-0.7-0.2-1-0.2-1.1L82.1,141z M86.7,141c-0.1,0.2-0.4,0.3-0.5,0.3
		c0.1,0.1,0.2,0.3,0.3,0.4c0.1-0.1,0.3-0.2,0.4-0.2c-0.2-0.7-0.2-1-0.2-1.1L86.7,141z M91.4,141c-0.1,0.2-0.3,0.3-0.5,0.3l0.3,0.5
		c0.1-0.1,0.3-0.2,0.4-0.2c-0.1-0.4-0.2-0.8-0.2-1.2L91.4,141z M57.4,140.8c-0.1,0.2-0.4,0.4-0.6,0.4c0.2,0.1,0.3,0.3,0.3,0.5
		c0.2-0.1,0.4-0.2,0.5-0.2c-0.4-0.2-0.6-0.6-0.4-1c0-0.1,0.1-0.2,0.2-0.3L57.4,140.8z M62,140.8c-0.1,0.2-0.4,0.3-0.6,0.4
		c0.2,0.1,0.3,0.3,0.3,0.5c0.1-0.1,0.3-0.2,0.5-0.2c-0.4-0.1-0.6-0.6-0.4-1c0-0.1,0.1-0.2,0.2-0.3L62,140.8z M66.7,140.8
		c-0.1,0.2-0.4,0.3-0.6,0.4c0.2,0.1,0.3,0.3,0.3,0.5c0.2-0.1,0.4-0.2,0.5-0.2c-0.4-0.2-0.6-0.7-0.4-1.1c0-0.1,0.1-0.1,0.1-0.2
		L66.7,140.8z M71.4,140.8c-0.1,0.2-0.4,0.4-0.6,0.4c0.2,0.1,0.3,0.3,0.3,0.5c0.2-0.1,0.4-0.2,0.5-0.2c-0.4-0.2-0.6-0.8-0.3-1.2
		c0-0.1,0.1-0.1,0.1-0.2L71.4,140.8z M76,140.8c-0.1,0.2-0.4,0.4-0.6,0.4c0.2,0.1,0.3,0.3,0.3,0.5c0.2-0.1,0.3-0.2,0.5-0.2
		c-0.4-0.2-0.6-0.7-0.4-1.2c0-0.1,0.1-0.1,0.1-0.2L76,140.8z M85.4,140.7c-0.1,0.2-0.4,0.4-0.6,0.4c0.2,0.1,0.3,0.3,0.3,0.6
		c0.1-0.1,0.3-0.2,0.5-0.3c-0.4-0.3-0.6-0.8-0.3-1.3c0,0,0.1-0.1,0.1-0.1L85.4,140.7z M90.1,140.6c-0.1,0.3-0.4,0.5-0.7,0.5
		c0.2,0.1,0.3,0.3,0.3,0.5c0.2-0.1,0.4-0.2,0.6-0.3c-0.1-0.2-0.2-0.3-0.2-0.5c0-0.8,0-0.9,0-1L90.1,140.6z M80.7,140.6
		c-0.1,0.3-0.4,0.5-0.7,0.5c0.2,0.1,0.3,0.3,0.3,0.5c0.2-0.1,0.3-0.2,0.6-0.3c-0.1-0.2-0.2-0.3-0.2-0.6c0.1-0.3,0.1-0.7,0-1
		L80.7,140.6z M59.2,139.9c-0.1,0.3-0.4,0.4-0.7,0.4c0.3,0.1,0.5,0.4,0.5,0.7c0.2-0.2,0.5-0.3,0.7-0.4c-0.2-0.8-0.4-1.2-0.5-1.5
		L59.2,139.9z M57.4,140.4c0,0.1,0,0.2,0,0.3c0.2-0.3,0.6-0.5,1-0.4l-0.2-0.1L57.4,140.4z M92.8,141.8c-0.2,0-0.3,0.1-0.5,0.2
		L92.8,141.8z M96.2,139.9l-1.4,0.5c-0.1-0.1-0.1-0.2-0.1-0.4c0-0.1,0-0.1,0-0.2c-0.1,0.3-0.4,0.5-0.7,0.5c0.1,0.1,0.2,0.2,0.3,0.3
		l-1.5,0.5l-0.5,0.2c-25.5,9.2-59.1,17.8-78.3,8.6c-2.9-1.4-5.4-3.6-7.2-6.3c-2.2-3.5-4.9-6.9-6.8-10.5c4.9,8,14.2,10,23,10.4
		c9,0.5,18.9-0.6,29.3-2.8c0,0.1,0.1,0.2,0.1,0.2c0.2-0.1,0.3-0.2,0.4-0.3c0.8-0.2,1.7-0.4,2.5-0.6c0.1,0.2,0.2,0.3,0.3,0.5
		c0.1-0.2,0.5-0.2,0.6-0.3c-0.1-0.1-0.2-0.2-0.3-0.4l1.4-0.3l0.8-0.2l0.9-0.2l1.4-0.3c0.1,0.1,0.2,0.3,0.2,0.4
		c0,0.4-0.4,0.7-0.8,0.7c0.2,0.1,0.3,0.4,0.4,0.6c0.1-0.2,0.5-0.2,0.6-0.3c-0.2-0.1-0.3-0.3-0.3-0.6c0-0.4,0.3-0.7,0.7-0.7
		c0,0,0,0,0,0c0.4,0,0.7,0.3,0.7,0.7c0,0,0,0.1,0,0.1c0.1-0.2,0.4-0.4,0.7-0.4c0.4,0,0.7,0.2,0.8,0.8c0.2-0.2,0.4-0.3,0.7-0.4
		c-0.2-0.1-0.4-0.4-0.4-0.6c0-0.4,0.3-0.7,0.7-0.7c0.4,0,0.7,0.3,0.7,0.7c0,0.4-0.4,0.7-0.8,0.7c0.2,0.1,0.3,0.4,0.4,0.6
		c0.1-0.2,0.5-0.2,0.6-0.3c-0.2-0.1-0.3-0.3-0.3-0.6c0-0.4,0.3-0.7,0.7-0.7c0,0,0,0,0,0c0.4,0,0.7,0.3,0.7,0.7c0,0,0,0.1,0,0.1
		c0.3-0.3,0.4-0.4,0.7-0.4c0.4,0,0.8,0.3,0.8,0.8c0.2-0.2,0.4-0.3,0.7-0.3c-0.2-0.1-0.3-0.4-0.4-0.6c0-0.4,0.3-0.7,0.7-0.7
		s0.7,0.3,0.7,0.7c0,0.4-0.4,0.7-0.8,0.7c0.2,0.1,0.3,0.5,0.4,0.6c0.2-0.2,0.5-0.2,0.6-0.3c-0.3-0.3-0.3-0.4-0.3-0.6
		c0-0.4,0.3-0.7,0.7-0.7c0,0,0,0,0.1,0c0.4,0,0.7,0.3,0.7,0.7c0,0,0,0.1,0,0.1c0.1-0.3,0.4-0.4,0.7-0.4c0.4,0,0.7,0.3,0.8,0.8
		c0.2-0.2,0.4-0.3,0.7-0.3c-0.2-0.1-0.4-0.4-0.4-0.6c0-0.4,0.4-0.7,0.8-0.6c0.3,0,0.6,0.3,0.6,0.6c0,0.4-0.4,0.7-0.8,0.7
		c0.2,0.1,0.3,0.5,0.4,0.6c0.1-0.2,0.4-0.2,0.6-0.3c-0.3-0.3-0.3-0.4-0.3-0.6c0-0.4,0.3-0.7,0.7-0.7c0,0,0,0,0,0
		c0.4,0,0.7,0.3,0.7,0.8c0,0,0,0.1,0,0.1c0.1-0.3,0.4-0.4,0.7-0.4c0.4,0,0.7,0.3,0.8,0.8c0.2-0.3,0.5-0.3,0.7-0.4
		c-0.2-0.1-0.4-0.5-0.4-0.6c0-0.4,0.3-0.7,0.7-0.7c0.4,0,0.7,0.3,0.7,0.7c0,0.4-0.4,0.7-0.8,0.7c0,0,0,0,0,0
		c0.2,0.1,0.4,0.5,0.5,0.7c0.2-0.2,0.5-0.3,0.6-0.3c-0.3-0.3-0.3-0.4-0.3-0.6c0-0.4,0.3-0.7,0.7-0.7c0,0,0,0,0,0
		c0.4,0,0.8,0.4,0.7,0.8c0,0,0,0.1,0,0.1c0.1-0.3,0.4-0.5,0.7-0.5c0.4,0,0.7,0.3,0.8,0.8c0.2-0.3,0.5-0.3,0.7-0.3
		c-0.2-0.1-0.4-0.4-0.4-0.6c0-0.4,0.3-0.7,0.7-0.7s0.7,0.3,0.7,0.7c0,0.4-0.4,0.7-0.8,0.7c0,0,0,0-0.1,0c0.3,0.1,0.3,0.4,0.5,0.6
		c0.1-0.2,0.5-0.3,0.6-0.3c-0.2-0.1-0.3-0.3-0.3-0.6c0-0.4,0.3-0.7,0.7-0.7c0,0,0,0,0.1,0c0.4,0,0.7,0.3,0.7,0.8c0,0,0,0.1,0,0.1
		c0.1-0.3,0.4-0.4,0.7-0.4c0.4,0,0.8,0.4,0.8,0.8c0.2-0.3,0.5-0.3,0.7-0.4c-0.3-0.2-0.4-0.6-0.2-1c0.1-0.2,0.3-0.3,0.6-0.3
		c0.4,0,0.7,0.2,0.7,0.6c0,0,0,0.1,0,0.1c0,0.4-0.3,0.7-0.7,0.7c-0.1,0-0.1,0-0.2,0c0.3,0.1,0.4,0.5,0.5,0.6
		c0.2-0.2,0.4-0.2,0.6-0.3c-0.2-0.1-0.3-0.3-0.3-0.6c0-0.4,0.3-0.7,0.7-0.7c0,0,0,0,0,0c0.4,0,0.8,0.4,0.7,0.8c0,0,0,0,0,0
		c0.1-0.2,0.5-0.4,0.7-0.4c0.4,0,0.8,0.4,0.8,0.8c0.2-0.3,0.5-0.3,0.8-0.3c-0.3-0.1-0.4-0.4-0.4-0.6c0-0.4,0.3-0.7,0.6-0.7
		c0,0,0,0,0.1,0c0.3,0,0.7,0.2,0.7,0.6c0,0,0,0.1,0,0.1c0,0.4-0.3,0.7-0.7,0.7c-0.1,0-0.1,0-0.2,0c0.2,0.1,0.4,0.5,0.4,0.6
		c0.2-0.1,0.4-0.2,0.7-0.3c-0.1-0.2-0.3-0.4-0.3-0.6c0-0.4,0.3-0.7,0.7-0.7l0,0c0.4,0,0.8,0.4,0.7,0.8c0,0,0,0,0,0.1
		c0.1-0.2,0.5-0.4,0.7-0.4C95.8,139.3,96.1,139.5,96.2,139.9z M121.9,32.4l15.3,43.7h0.2V25.4l-0.8,0.3c-0.8,0.3-1.5,0.6-2.3,1
		l-2.3,1c-0.8,0.3-1.5,0.7-2.3,1l-2.3,1l-2.3,1.2l-2.3,1.1L121.9,32.4z M37.7,109.2V91.9c-4.7,3.6-14.5,12.5-18.5,20
		c-3.5,6.5-4,8.4-4.1,11.7c-0.2,3.4,0.7,6.7,2.5,9.6c-1.8-1.1-4.7-2.4-7.1-5c-2.2-2.4-2.6-5-2.9-7.7c-0.5-4.1,1.3-9.5,3.8-14.3
		c3-5.2,6.6-10.1,10.8-14.4c5-5.4,11.9-11,15.5-14.7V25.3h33.2v24.8c2.8-2,5.7-3.9,8.6-5.7V25.3H113c0.1,0,2.2-1.1,2.4-1.2
		c5.3-2.6,10.8-5.2,16.3-7.4C145.4,11,176.8-0.1,199.3,0c8,0,14.1,0.8,19.3,3.7c4.4,2.4,6.7,6.1,6.7,8.9c0,2.5-0.2,4.9-0.7,7.4
		c-12-22.8-70.8-1.4-86.9,5.4h26.8v56.2c-13.1,9.1-26.8,17.3-41,24.5l-16.7-47.9h-0.2v51.2h-27V56.7c-2.9,2-5.8,4-8.6,6v46.5
		L37.7,109.2z M116.2,117.8l1.1-0.5c0,0.1,0,0.1,0,0.2c0,0.3-0.3,0.6-0.6,0.6C116.5,118,116.3,117.9,116.2,117.8z M114.4,118.6
		l1-0.5c0,0.1,0,0.1,0,0.2c0,0.3-0.2,0.5-0.5,0.6c0,0,0,0,0,0C114.6,118.9,114.5,118.8,114.4,118.6z M112.6,119.5l0.9-0.4
		c0,0.1,0.1,0.2,0.1,0.2c0,0.3-0.2,0.5-0.5,0.5c0,0,0,0,0,0C112.8,119.8,112.6,119.7,112.6,119.5z M110.7,120.3l0.8-0.4
		c0.1,0.1,0.1,0.2,0.1,0.3c0,0.2-0.2,0.4-0.4,0.4C110.9,120.7,110.7,120.5,110.7,120.3z M108.9,121.2l0.5-0.2
		c0.1,0.1,0.2,0.2,0.2,0.3c0,0.2-0.3,0.4-0.4,0.4S108.9,121.3,108.9,121.2L108.9,121.2z M78.8,133.3l0.5-0.2c0,0.1-0.1,0.3-0.2,0.3
		c0,0,0,0-0.1,0C79,133.4,78.9,133.3,78.8,133.3z M76.8,133.9l0.6-0.2c0.1,0.1,0.1,0.2,0.2,0.3c0,0.2-0.2,0.4-0.4,0.4
		C77,134.4,76.8,134.2,76.8,133.9C76.8,134,76.8,134,76.8,133.9L76.8,133.9z M69.7,136.2l0.9-0.3c0.1,0.1,0.2,0.3,0.2,0.4
		c0,0.3-0.2,0.6-0.5,0.6c-0.3,0-0.6-0.2-0.6-0.5c0,0,0-0.1,0-0.1C69.7,136.4,69.7,136.3,69.7,136.2L69.7,136.2z M66.5,137.2l1.2-0.3
		c0,0.3-0.3,0.6-0.7,0.6C66.7,137.5,66.5,137.4,66.5,137.2L66.5,137.2z M64.5,137.8l1.1-0.3c0.2,0.3,0.1,0.7-0.1,0.9
		c-0.1,0.1-0.2,0.1-0.4,0.1C64.7,138.5,64.4,138.1,64.5,137.8L64.5,137.8z M62.9,138.2l0.4-0.1c0.4,0,0.7,0.3,0.7,0.7
		c0,0.4-0.2,0.7-0.6,0.8c-0.4,0-0.7-0.2-0.8-0.6c0-0.1,0-0.1,0-0.2C62.5,138.6,62.7,138.3,62.9,138.2L62.9,138.2z M61.3,138.7
		l1.2-0.3c0,0.4-0.3,0.7-0.6,0.7c0,0,0,0,0,0C61.6,139,61.3,138.9,61.3,138.7L61.3,138.7z M101,138l-1.1,0.4
		c0.1-0.3,0.4-0.6,0.7-0.6C100.7,137.9,100.9,137.9,101,138L101,138z M103,137.2l-1.1,0.4c0-0.3,0.2-0.6,0.5-0.7c0,0,0.1,0,0.1,0
		C102.7,137,102.8,137.1,103,137.2L103,137.2z M104.9,136.5l-1.1,0.4c0-0.1-0.1-0.2-0.1-0.2c0-0.3,0.3-0.6,0.6-0.6
		C104.6,136.1,104.8,136.2,104.9,136.5L104.9,136.5z M106.7,135.7l-0.9,0.4c-0.2-0.2-0.2-0.5,0-0.7c0.1-0.1,0.2-0.2,0.4-0.2
		C106.5,135.2,106.7,135.4,106.7,135.7L106.7,135.7z M108.5,135l-0.5,0.2c-0.2-0.1-0.4-0.3-0.3-0.6c0.1-0.2,0.2-0.3,0.4-0.3
		c0.3,0,0.5,0.2,0.5,0.5C108.5,134.9,108.5,134.9,108.5,135L108.5,135z M137.7,121.1l-0.4,0.2c-0.2,0-0.3-0.2-0.3-0.4
		c0-0.2,0.2-0.4,0.4-0.4l0,0C137.6,120.6,137.6,120.9,137.7,121.1L137.7,121.1z M139.6,120.1l-0.6,0.4c-0.1-0.1-0.2-0.2-0.2-0.4
		c0-0.2,0.1-0.5,0.4-0.5c0.2,0,0.5,0.1,0.5,0.4C139.6,120,139.6,120.1,139.6,120.1L139.6,120.1z M141.6,119.1l-0.9,0.5
		c-0.1-0.1-0.2-0.2-0.2-0.4c0-0.3,0.2-0.5,0.5-0.5C141.3,118.7,141.4,118.8,141.6,119.1L141.6,119.1z M143.4,118.1l-1,0.5
		c-0.1-0.1-0.1-0.2-0.1-0.3c0-0.3,0.2-0.5,0.5-0.6c0,0,0,0,0.1,0C143.1,117.7,143.3,117.8,143.4,118.1L143.4,118.1z M145.3,117
		l-1.1,0.6c-0.1-0.1-0.1-0.2-0.1-0.3c0-0.3,0.3-0.6,0.6-0.6C145,116.7,145.2,116.8,145.3,117L145.3,117z M147.2,116l-1.1,0.6
		c0-0.1-0.1-0.2-0.1-0.3c0-0.4,0.3-0.6,0.6-0.7c0,0,0,0,0,0c0.2,0,0.3,0,0.5,0.1L147.2,116z M173.1,75.5v-50h48.9l-0.1,0.2
		c-3.9,7.2-11.6,15.4-19.7,24.2c-8.9,9.3-18.7,17.8-29.1,25.5L173.1,75.5z"/>
	<rect x="29.1" y="117.6" class="st1" width="3.6" height="17"/>
	<path class="st2" d="M39.3,134.6v-5.4c0-1.5-0.4-2.6-2.1-2.6c-0.9-0.1-1.7,0.4-2.1,1.2h-0.1v-1h-1.4c0,0.6,0.1,1.1,0.1,1.6v6.2h1.3
		V130c0-1.1,0.2-2.3,1.6-2.3c1.1,0,1.4,0.7,1.4,1.5v5.4L39.3,134.6z"/>
	<path class="st2" d="M39.4,126.8v1h1.3v5.6c0,0.9,0.5,1.4,1.8,1.4c0.4,0,0.8-0.1,1.3-0.1v-1c-0.3,0-0.5,0.1-0.6,0.1
		c-1.2,0-1.2-0.6-1.2-1.1v-4.8h1.7v-1H42v-2.1l-1.3,0.6v1.5H39.4z"/>
	<path class="st2" d="M45.2,130.1c0-2.2,0.7-2.6,1.5-2.6s1.6,0.3,1.6,2.6H45.2z M49.6,131.1v-0.7c0-2.6-0.5-3.8-2.8-3.8
		c-2.7,0-3,1.9-3,4.2c0,3.5,1.3,4,3,4s2.7-0.8,2.7-2.5h-1.4c0,0.8-0.5,1.4-1.3,1.5c0,0,0,0-0.1,0c-1,0-1.6-0.4-1.6-2.6L49.6,131.1z"
		/>
	<path class="st2" d="M54.9,130.6c0,1.1,0,2.9-1.5,2.9c-1,0-1.5-0.6-1.5-3.1c0-1,0-2.8,1.5-2.8S54.9,129.5,54.9,130.6z M54.9,127.7
		L54.9,127.7c-0.3-0.7-1.1-1.2-1.8-1.1c-0.6,0-2.5,0.2-2.5,3.8c0,2.3,0.4,4.2,2.5,4.2c0.7,0,1.4-0.4,1.7-1h0v1.6
		c0.1,0.7-0.5,1.3-1.1,1.4c-0.1,0-0.2,0-0.2,0c-0.6,0.1-1.1-0.4-1.2-1c0-0.1,0-0.1,0-0.2h-1.4c-0.1,1.4,1.1,2.1,2.4,2.1
		c1.7,0,2.9-0.4,2.9-2.2v-8.6h-1.3V127.7z"/>
	<path class="st2" d="M58.9,126.8h-1.3v7.8h1.3V130c0-1.1,0.4-2.1,1.8-2.1c0.1,0,0.2,0,0.3,0l0.3,0.1v-1.3c-1.2,0-1.9,0.1-2.4,1.3
		l0,0L58.9,126.8z"/>
	<path class="st2" d="M65.7,130.7c0.1,2.5-0.8,3-1.6,3c-0.8,0-1.2-0.7-1.2-1.4C62.9,130.6,64.5,130.7,65.7,130.7z M65.7,134.6h1.4
		c-0.1-0.6-0.2-1.2-0.2-1.9V129c0-1.3-0.5-2.4-2.5-2.4c-1.7,0-2.6,0.6-2.7,2.4h1.4c-0.1-0.6,0.3-1.3,0.9-1.4c0.1,0,0.2,0,0.3,0
		c1.4,0,1.3,1.1,1.3,2.2c-1.8-0.1-4.1,0.1-4.1,2.4c0,1.5,0.5,2.6,2.1,2.6c0.9,0.1,1.7-0.4,2-1.3l0,0V134.6z"/>
	<path class="st2" d="M73.9,129.3c0.1-1.7-0.8-2.7-2.4-2.7c-2.7,0-3,1.9-3,4.2c0,3.5,1.3,4,3,4c1.4,0,2.5-1.1,2.5-2.5
		c0-0.1,0-0.2,0-0.3h-1.3c0.1,1.4-0.8,1.7-1.1,1.7c-1.3,0-1.7-0.9-1.7-3.5c0-2.1,0.7-2.6,1.7-2.6c0.5,0,1.1,0.3,1.1,1.6L73.9,129.3z
		"/>
	<path class="st2" d="M76.6,126.8h-1.3v7.8h1.3V126.8z M75.2,124.8h1.4v-1.4h-1.4V124.8z"/>
	<path class="st2" d="M80.7,123.4l-1.4,2.2h1l2-2.2H80.7z M80.6,133.7c-1.3,0-1.6-0.9-1.6-3.5c0-2.1,0.7-2.6,1.6-2.6
		s1.7,0.5,1.7,2.6C82.2,132.8,81.9,133.7,80.6,133.7z M80.6,134.7c1.7,0,3-0.5,3-4c0-2.3-0.3-4.2-3-4.2s-3,1.9-3,4.2
		C77.6,134.3,78.9,134.8,80.6,134.7L80.6,134.7z"/>
	<path class="st2" d="M90.1,134.6v-5.4c0-1.5-0.4-2.6-2.1-2.6c-0.9-0.1-1.7,0.4-2.1,1.2h-0.1v-1h-1.4c0,0.6,0.1,1.1,0.1,1.6v6.2h1.3
		V130c0-1.1,0.2-2.3,1.6-2.3c1.1,0,1.4,0.7,1.4,1.5v5.4L90.1,134.6z"/>
	<polygon class="st2" points="97.5,134.6 97.5,122.2 97.6,122.2 102.2,134.6 106.9,134.6 106.9,117.6 103.6,117.6 103.6,129.4 
		103.5,129.4 99,117.6 94.2,117.6 94.2,134.6 	"/>
	<path class="st2" d="M109.3,130.1c0-2.2,0.7-2.6,1.5-2.6s1.6,0.3,1.6,2.6H109.3z M113.7,131.1v-0.7c0-2.6-0.6-3.8-2.8-3.8
		c-2.7,0-3,1.9-3,4.2c0,3.5,1.3,4,3,4s2.7-0.8,2.7-2.5h-1.4c0,0.8-0.5,1.4-1.3,1.5c0,0,0,0-0.1,0c-1,0-1.6-0.4-1.6-2.6L113.7,131.1z
		"/>
	<path class="st2" d="M119,130.6c0,1.1,0,2.9-1.5,2.9c-0.9,0-1.5-0.6-1.5-3.1c0-1,0.1-2.8,1.5-2.8C119.1,127.7,119,129.5,119,130.6z
		 M119,127.7L119,127.7c-0.3-0.7-1-1.2-1.8-1.1c-0.6,0-2.4,0.2-2.4,3.8c0,2.3,0.4,4.2,2.5,4.2c0.7,0,1.4-0.4,1.7-1l0,0v1.6
		c0.1,0.7-0.5,1.3-1.2,1.4c-0.1,0-0.1,0-0.2,0c-0.6,0.1-1.1-0.4-1.2-1c0-0.1,0-0.1,0-0.2H115c-0.1,1.4,1.1,2.1,2.4,2.1
		c1.7,0,2.9-0.4,2.9-2.2v-8.6H119L119,127.7z"/>
	<path class="st2" d="M124.4,133.7c-1.3,0-1.6-0.9-1.6-3.5c0-2.1,0.7-2.6,1.6-2.6s1.7,0.5,1.7,2.6
		C126.1,132.8,125.7,133.7,124.4,133.7z M124.4,134.7c1.7,0,3-0.5,3-4c0-2.3-0.3-4.2-3-4.2s-3,1.9-3,4.2
		C121.4,134.3,122.8,134.8,124.4,134.7L124.4,134.7z"/>
	<path class="st2" d="M133.9,129.3c0.2-1.2-0.6-2.4-1.8-2.6c-0.2,0-0.4-0.1-0.6,0c-2.7,0-3,1.9-3,4.2c0,3.5,1.3,4,3,4
		c1.4,0,2.5-1.1,2.5-2.5c0-0.1,0-0.2,0-0.3h-1.3c0,1.4-0.8,1.7-1.1,1.7c-1.3,0-1.6-0.9-1.6-3.5c0-2.1,0.7-2.6,1.6-2.6
		c0.5,0,1.1,0.3,1.1,1.6L133.9,129.3z"/>
	<path class="st2" d="M136.5,126.8h-1.3v7.8h1.3V126.8z M135.1,124.8h1.4v-1.4h-1.4V124.8z"/>
	<path class="st2" d="M140.5,133.7c-1.3,0-1.6-0.9-1.6-3.5c0-2.1,0.7-2.6,1.6-2.6s1.6,0.5,1.6,2.6
		C142.1,132.8,141.8,133.7,140.5,133.7z M140.5,134.7c1.7,0,3-0.5,3-4c0-2.3-0.3-4.2-3-4.2s-3,1.9-3,4.2
		C137.5,134.3,138.8,134.8,140.5,134.7L140.5,134.7z"/>
	<path class="st2" d="M149.6,132.4c0-2.4-3.9-2.4-3.9-3.7c0-0.6,0.5-1.1,1.1-1.1c0,0,0.1,0,0.1,0c0.6-0.1,1.2,0.4,1.2,1
		c0,0.1,0,0.2,0,0.3h1.4c0.1-1.5-1.1-2.2-2.5-2.2c-2.2,0-2.7,1.3-2.7,2.1c0,2.4,3.9,2.4,3.9,3.8c0,0.8-0.6,1.2-1.4,1.2
		c-1.3,0-1.3-1.1-1.3-1.5h-1.4c0,1.8,1,2.5,2.7,2.5C148.4,134.8,149.6,134.1,149.6,132.4z"/>
	<polygon class="st2" points="162.7,134.6 162.7,132 156.8,132 156.8,127 162,127 162,124.4 156.8,124.4 156.8,120.3 162.5,120.3 
		162.5,117.6 153.2,117.6 153.2,134.6 	"/>
	<path class="st2" d="M168.3,134.6v-5.3c0-0.5,0.1-1,0.4-1.4c0.3-0.3,0.6-0.4,1-0.3c1,0,1.3,0.7,1.3,1.5v5.4h1.3v-6
		c0.1-1-0.7-1.9-1.7-2c-0.1,0-0.3,0-0.4,0c-0.8-0.1-1.5,0.3-1.9,1c-0.7-1-2-1.3-3.1-0.6c-0.3,0.2-0.5,0.5-0.7,0.8l0,0v-1h-1.4
		c0,0.6,0.1,1.1,0.1,1.6v6.2h1.3v-5.3c0-0.4,0.1-0.8,0.3-1.1c0.3-0.3,0.7-0.5,1.1-0.5c1,0,1.2,0.7,1.2,1.5v5.4L168.3,134.6z"/>
	<path class="st2" d="M176.3,133.7c-1.4,0-1.5-1.7-1.5-2.7c0-1.2-0.1-3.4,1.4-3.4s1.6,1.7,1.6,2.9
		C177.8,132.6,177.6,133.7,176.3,133.7z M174.8,126.7h-1.3v10.9h1.3v-3.8l0,0c0.4,0.6,1,1,1.7,0.9c2.5,0,2.6-2.3,2.6-4.2
		c0-3.4-1.3-3.9-2.5-3.9c-0.8,0-1.5,0.4-1.8,1.1l0,0L174.8,126.7z"/>
	<path class="st2" d="M181.5,126.8h-1.3v7.8h1.3V130c0-1.1,0.4-2.1,1.8-2.1c0.1,0,0.2,0,0.3,0l0.3,0.1v-1.3c-1.2,0-1.9,0.1-2.4,1.3
		l0,0L181.5,126.8z"/>
	<path class="st2" d="M185.7,130.1c0-2.2,0.7-2.6,1.5-2.6s1.6,0.3,1.6,2.6H185.7z M190.1,131.1v-0.7c0-2.6-0.6-3.8-2.8-3.8
		c-2.7,0-3,1.9-3,4.2c0,3.5,1.3,4,3,4s2.7-0.8,2.7-2.5h-1.4c0,0.8-0.5,1.4-1.3,1.5c0,0,0,0-0.1,0c-1,0-1.6-0.4-1.6-2.6L190.1,131.1z
		"/>
	<path class="st2" d="M196.3,132.4c0-2.4-3.9-2.4-3.9-3.7c0-0.6,0.5-1.1,1.1-1.1c0,0,0.1,0,0.1,0c0.6-0.1,1.2,0.3,1.2,0.9
		c0,0.1,0,0.2,0,0.3h1.4c0.1-1.5-1.1-2.2-2.5-2.2c-2.2,0-2.7,1.3-2.7,2.1c0,2.4,3.9,2.4,3.9,3.8c0,0.8-0.6,1.2-1.4,1.2
		c-1.3,0-1.3-1.1-1.3-1.5h-1.4c0,1.8,1,2.5,2.7,2.5S196.3,134.1,196.3,132.4z"/>
	<path class="st2" d="M201.1,130.7c0.1,2.5-0.8,3-1.6,3s-1.2-0.7-1.2-1.4C198.3,130.6,199.9,130.7,201.1,130.7z M201.1,134.6h1.4
		c-0.1-0.6-0.1-1.2-0.1-1.9V129c0-1.3-0.5-2.4-2.6-2.4c-1.7,0-2.6,0.6-2.7,2.4h1.4c-0.1-0.6,0.3-1.3,0.9-1.4c0.1,0,0.2,0,0.3,0
		c1.4,0,1.4,1.1,1.3,2.2c-1.8-0.1-4.1,0.1-4.1,2.4c0,1.5,0.5,2.6,2.1,2.6c0.9,0.1,1.7-0.4,2-1.3l0,0V134.6z"/>
	<path class="st2" d="M205.3,126.8h-1.3v7.8h1.3V130c0-1.1,0.4-2.1,1.8-2.1c0.1,0,0.2,0,0.4,0l0.3,0.1v-1.3c-1.3,0-1.9,0.1-2.4,1.3
		l0,0L205.3,126.8z"/>
	<path class="st2" d="M209.4,126.8h-1.3v7.8h1.3V126.8z M208,124.8h1.4v-1.4H208V124.8z"/>
	<path class="st2" d="M214.6,130.7c0.1,2.5-0.8,3-1.6,3s-1.2-0.7-1.2-1.4C211.8,130.6,213.4,130.7,214.6,130.7z M214.6,134.6h1.4
		c-0.1-0.6-0.1-1.2-0.1-1.9V129c0-1.3-0.5-2.4-2.6-2.4c-1.7,0-2.6,0.6-2.7,2.4h1.4c-0.1-0.6,0.3-1.3,0.9-1.4c0.1,0,0.2,0,0.3,0
		c1.4,0,1.4,1.1,1.3,2.2c-1.8-0.1-4.1,0.1-4.1,2.4c0,1.5,0.5,2.6,2.1,2.6c0.9,0.1,1.7-0.4,2-1.3l0,0V134.6z"/>
	<rect x="217.4" y="123.4" class="st1" width="1.3" height="11.2"/>
	<path class="st2" d="M221.1,130.1c0-2.2,0.7-2.6,1.5-2.6s1.6,0.3,1.6,2.6H221.1z M225.5,131.1v-0.7c0-2.6-0.6-3.8-2.8-3.8
		c-2.7,0-3,1.9-3,4.2c0,3.5,1.3,4,3,4s2.7-0.8,2.7-2.5h-1.4c0,0.8-0.5,1.4-1.3,1.5c0,0,0,0-0.1,0c-1,0-1.6-0.4-1.6-2.6L225.5,131.1z
		"/>
	<path class="st2" d="M231.7,132.4c0-2.4-3.9-2.4-3.9-3.7c0-0.6,0.5-1.1,1.1-1.1c0,0,0.1,0,0.1,0c0.6-0.1,1.2,0.4,1.2,1
		c0,0.1,0,0.2,0,0.3h1.4c0.1-1.5-1.1-2.2-2.5-2.2c-2.2,0-2.7,1.3-2.7,2.1c0,2.4,3.9,2.4,3.9,3.8c0,0.8-0.6,1.2-1.4,1.2
		c-1.3,0-1.3-1.1-1.3-1.5h-1.4c0,1.8,1,2.5,2.7,2.5S231.7,134.1,231.7,132.4z"/>
	<path class="st2" d="M234.8,131.3c0,1.1,0,3.6,3.3,3.6c1.9,0,3.5-0.8,3.5-3.1c0-3.6-5-3.2-5-5.7c0-0.9,0.6-1.6,1.5-1.7
		c0.1,0,0.2,0,0.2,0c1.4,0,1.7,0.8,1.7,2h1.5c0.1-2.3-1.1-3.3-3.1-3.3c-1.6-0.2-3.1,1-3.3,2.7c0,0.1,0,0.2,0,0.4c0,3.4,5,3.1,5,5.6
		c0,1.3-0.9,1.8-2,1.8c-1,0.1-1.8-0.7-1.9-1.6c0-0.1,0-0.2,0-0.4v-0.3L234.8,131.3z"/>
	<rect x="242.6" y="133" class="st1" width="1.5" height="1.6"/>
	<path class="st3" d="M244.3,134.6h1.4l0.8-2.7h4.3l0.8,2.7h1.6l-3.6-11.2h-1.8L244.3,134.6z M250.5,130.7h-3.6l1.8-6l0,0
		L250.5,130.7z"/>
	<rect x="253.6" y="133" class="st1" width="1.5" height="1.6"/>
</g>
</svg>
